<?xml version="1.0" encoding="iso-8859-1"?>
<!-- Generator: Adobe Illustrator 19.0.0, SVG Export Plug-In . SVG Version: 6.00 Build 0)  -->
<svg version="1.1" id="Capa_1" xmlns="http://www.w3.org/2000/svg" xmlns:xlink="http://www.w3.org/1999/xlink" x="0px" y="0px"
	 viewBox="0 0 462.571 462.571" style="enable-background:new 0 0 462.571 462.571;" xml:space="preserve">
<g>
	<g id="XMLID_809_">
		<path id="XMLID_908_" d="M437.444,337.119l-35.6-26.943l-47.474,1.923l-13.996,8.013l69.903,52.904
			c9.919,7.507,24.035,5.541,31.532-4.365C449.311,358.738,447.357,344.621,437.444,337.119z"/>
		<circle id="XMLID_1140_" cx="121.287" cy="154.402" r="38.875"/>
		<path id="XMLID_1145_" d="M185.337,132.424l-8.878,40.13c0,0-28.084,25.696-37.919,34.879
			c-10.593,9.907-11.15,26.525-1.243,37.119c4.536,4.851,88.365,94.49,92.651,99.073l0.003-0.026
			c7.011,6.933,18.035,8.654,27.007,3.519l92.286-52.832l79.229-3.209c12.448-0.505,22.082-11.007,21.58-23.401
			c-0.504-12.431-10.989-22.085-23.401-21.58l-84.726,3.432c-3.612,0.145-7.135,1.161-10.272,2.955l-97.061,55.563l0,0l0,0
			l53.06-48.177l-31.93-34.143l-61.966,9.848l71.819-29.647l0,0c5.669-2.432,9.902-7.565,11.057-13.856l6.91-37.591l6.91-37.591
			c1.88-10.246-4.944-19.978-15.066-21.834c-10.15-1.862-19.961,4.89-21.831,15.055c-0.001,0.004-0.002,0.007-0.002,0.01
			c-1.381,7.529-10.279,56.041-11.706,63.819l0,0l-65.565,28.117l38.724-30.072l8.486-38.357c0.984-4.447,0.316-9.1-1.878-13.09
			l-42.444-77.182c-4.992-9.077-16.397-12.389-25.475-7.398c-9.077,4.992-12.39,16.397-7.398,25.475L185.337,132.424z"/>
		<path id="XMLID_1146_" d="M450.071,403.938H12.5c-6.903,0-12.5,5.596-12.5,12.5s5.597,12.5,12.5,12.5h437.571
			c6.903,0,12.5-5.596,12.5-12.5S456.975,403.938,450.071,403.938z"/>
		<path id="XMLID_1147_" d="M98.125,276.807c-4.546-3.14-10.772-2.002-13.912,2.542s-2.001,10.772,2.542,13.912l112.737,77.902
			c4.547,3.141,10.774,1.999,13.912-2.542c3.14-4.544,2.001-10.772-2.542-13.912L98.125,276.807z"/>
		<path id="XMLID_1148_" d="M81.146,383.1l80.323,10.245c5.448,0.7,10.483-3.152,11.185-8.654
			c0.699-5.479-3.176-10.486-8.654-11.185l-80.323-10.245c-5.48-0.708-10.486,3.176-11.185,8.654
			C71.792,377.394,75.667,382.401,81.146,383.1z"/>
	</g>
</g>
<g>
</g>
<g>
</g>
<g>
</g>
<g>
</g>
<g>
</g>
<g>
</g>
<g>
</g>
<g>
</g>
<g>
</g>
<g>
</g>
<g>
</g>
<g>
</g>
<g>
</g>
<g>
</g>
<g>
</g>
</svg>
