<svg xmlns="http://www.w3.org/2000/svg" viewBox="0 0 80.32 55.35"><defs><style>.cls-1{fill:#2a3b8f;}.cls-2{fill:#f6a318;}</style></defs><title>bike-icon</title><g id="Layer_2" data-name="Layer 2"><g id="Layer_1-2" data-name="Layer 1"><path class="cls-1" d="M23.45,25.8c.72-.12,1.36-.24,2-.33a13.34,13.34,0,0,1,8,1.45,18.33,18.33,0,0,1,4.85,3.5,5.16,5.16,0,0,0,6,1.26,3.72,3.72,0,0,1,3.37-.08,2.35,2.35,0,0,1,.72.49.56.56,0,0,0,.67.13,10.51,10.51,0,0,1,10.67,2.35,8.91,8.91,0,0,1,1.32,1.5A.75.75,0,0,1,61,37.24,10.37,10.37,0,0,1,60,38c-.3.19-.27.34,0,.58a8.84,8.84,0,0,1,1.59,2.38.48.48,0,0,0,.5.33c.86,0,1.17.47.81,1.25a3.81,3.81,0,0,0-.38,1.95,9.71,9.71,0,0,1-4.58,9.24A9.42,9.42,0,0,1,50,55a9.82,9.82,0,0,1-7.23-7.22c-.24-.82-.22-.82-1.07-.82-4.88,0-9.76,0-14.63,0a5.19,5.19,0,0,1-4-1.65,9.73,9.73,0,0,1-1.59-2.78,45.38,45.38,0,0,1-2.78-7.94c-.16,0-.18.13-.23.22-.49.89-1,1.78-1.48,2.66a.44.44,0,0,0,.1.64,9.59,9.59,0,0,1,3,8.27,9.63,9.63,0,0,1-6.47,8.31,10,10,0,1,1-5.75-19.2,10.5,10.5,0,0,1,2.65-.25c.53,0,.86.32.84.78a.78.78,0,0,1-.89.74A8.44,8.44,0,0,0,3.32,40a8.53,8.53,0,1,0,13-.54c-.26-.28-.37-.25-.55.07-1.13,2.08-2.28,4.14-3.41,6.22A2.32,2.32,0,0,1,10,47.2a2.22,2.22,0,0,1-1.87-3,31.37,31.37,0,0,1,1.59-3c.14-.27.28-.54.44-.8S10.31,40,10,40a5.12,5.12,0,0,0-3,1.06,5.22,5.22,0,0,0,1.51,9.13,5.21,5.21,0,0,0,6.77-5.76c0-.3-.13-.6-.2-.9a.74.74,0,0,1,.51-.95.73.73,0,0,1,.93.54,6.66,6.66,0,0,1-1.8,7,6.46,6.46,0,0,1-6.75,1.44,6.45,6.45,0,0,1-4.48-5.3,6.72,6.72,0,0,1,5.63-7.7,5.89,5.89,0,0,1,1.83,0,.34.34,0,0,0,.4-.2q1.11-2,2.24-4.06c.15-.27.06-.34-.21-.32h-.38a.74.74,0,0,1-.8-.77q0-3.55,0-7.11a.75.75,0,0,1,.8-.78H16a.77.77,0,0,1,.8.78.75.75,0,0,1-.81.73c-.65,0-1.31,0-2,0-.35,0-.42.12-.42.43,0,1.57,0,3.15,0,4.72,0,.16-.14.46.16.47s.65.17.88-.25c.55-1,1.14-2.07,1.71-3.11Q19.2,24.06,22,19a2.5,2.5,0,0,1,2.37-1.4h7.27a2.09,2.09,0,0,1,2.18,1.64,2.05,2.05,0,0,1-1.6,2.48,4.48,4.48,0,0,1-.75.06c-1.8,0-3.6,0-5.39,0a.6.6,0,0,0-.62.36c-.58,1.09-1.19,2.17-1.79,3.26C23.59,25.5,23.54,25.61,23.45,25.8Zm-3.34,7.73-.07.09c.08.34.14.67.23,1a43.85,43.85,0,0,0,3.24,8.66,3.57,3.57,0,0,0,3.39,2.16h5.85c.09,0,.21,0,.26-.06s-.06-.17-.11-.25a3.68,3.68,0,0,1-.37-.65.51.51,0,0,0-.59-.39c-1.55,0-3.09.07-4.64,0a3.92,3.92,0,0,1-2.72-1.29.83.83,0,0,1-.27-.59.76.76,0,0,1,1.36-.46,2.88,2.88,0,0,0,2.18.87h1.76c.58,0,.58,0,.62-.59a.76.76,0,0,1,.71-.73.78.78,0,0,1,.79.7c0,.12,0,.25,0,.38s0,.22.17.23.22-.08.23-.22,0-.14,0-.21a4.23,4.23,0,0,1,6.25-3.22,3.67,3.67,0,0,0,2.12.5c.35,0,.7,0,1,0,.12,0,.28.07.34-.06s-.1-.21-.18-.29a20.1,20.1,0,0,0-6.5-4.59c-.29-.13-.33,0-.3.22q.11,1.19.18,2.37c0,.56-.24.94-.69,1s-.77-.29-.81-.86c-.08-1-.16-1.92-.22-2.87,0-.24-.09-.35-.34-.37s-.72-.07-1.08-.11c-.2,0-.24.07-.24.24,0,.33,0,.67,0,1a.37.37,0,0,0,.31.45.7.7,0,0,1,.51.81.74.74,0,0,1-.73.63h-.21l-7.4,0a1.48,1.48,0,0,1-.45-.06.72.72,0,0,1-.52-.65.61.61,0,0,1,.42-.7c.55-.09.46-.45.46-.8,0-.2,0-.39,0-.58s-.08-.37-.38-.34A5.4,5.4,0,0,1,20.11,33.53Zm33.55,5h1.93a3.22,3.22,0,0,0,1.92-.6l1.75-1.29c.17-.12.21-.21,0-.39a9.19,9.19,0,0,0-14.72,1.4,9.12,9.12,0,0,0-1.28,3.8c0,.16-.08.37.22.29a15,15,0,0,1,3.33-.21.58.58,0,0,0,.58-.35,4.86,4.86,0,0,1,3.08-2.44A12.52,12.52,0,0,1,53.66,38.52ZM27.25,26.85a13.12,13.12,0,0,0-4.61.86,1,1,0,0,0-.54.48c-.52,1-1.06,1.93-1.59,2.89-.34.62-.29.82.36,1.14a3.35,3.35,0,0,0,.47.17,3.89,3.89,0,0,0,1.7,0,42.16,42.16,0,0,1,11.37.2,2.6,2.6,0,0,0,2.55-.8c.2-.22.23-.38,0-.62a16.33,16.33,0,0,0-3.82-2.74A12.72,12.72,0,0,0,27.25,26.85ZM61,45.67a5.36,5.36,0,0,1-3.88,1.27H47.92c-.2,0-.47-.06-.3.31a5.11,5.11,0,0,0,4.11,3.17,5.05,5.05,0,0,0,5-2.21c.34-.46.77-.56,1.15-.29s.41.71.08,1.18A6.64,6.64,0,0,1,53,52a6.72,6.72,0,0,1-7-4.64c-.08-.28-.19-.43-.52-.4a8.79,8.79,0,0,1-.92,0c-.53,0-.55,0-.41.54A8.49,8.49,0,0,0,54,53.65,8.37,8.37,0,0,0,60.53,48,6.71,6.71,0,0,0,61,45.67ZM24.84,19.84a.72.72,0,0,0-.47-.65.7.7,0,0,0-.84.2,2.45,2.45,0,0,0-.29.46l-12,21.75-1.63,3a.75.75,0,0,0,.87,1.11c.28-.07.41-.31.54-.54l2.07-3.76,11.5-20.87A1.23,1.23,0,0,0,24.84,19.84Zm16,25.56.33,0c5.45,0,10.89,0,16.34,0a3.51,3.51,0,0,0,3.35-2.26c.15-.33,0-.38-.26-.37L57,42.88c-4,.07-8,.15-12,.19C43.19,43.08,42,44.12,40.87,45.4Zm-3.7,0c.33,0,.59,0,.83,0A1.13,1.13,0,0,0,39,45a16.37,16.37,0,0,1,1.94-1.83,1.94,1.94,0,0,0,.87-1.93c0-.05,0-.11,0-.17s0-.15-.11-.16a2.46,2.46,0,0,0-1.23,0c-.2.1.1.46.12.72a.7.7,0,0,0,0,.08.76.76,0,0,1-.49.86.75.75,0,0,1-.93-.42,3.47,3.47,0,0,1-.14-.39,2.76,2.76,0,0,0-3-1.95,2.77,2.77,0,0,0-.46,5.41A6.42,6.42,0,0,0,37.17,45.43Zm10-12.34a.42.42,0,0,0-.27-.22A2.28,2.28,0,0,0,45,33a6.53,6.53,0,0,1-4.28.46,7.47,7.47,0,0,1-2.06-.88c-.12-.07-.26-.22-.4,0a4.84,4.84,0,0,1-1.19,1.07,2.82,2.82,0,0,0,.25.18,20.83,20.83,0,0,1,5.17,3.84c.23.24.3.11.4-.09a10.64,10.64,0,0,1,2-2.79A11.85,11.85,0,0,1,47.14,33.09Zm7.36,8.4V41.3h5.1c.31,0,.42-.05.22-.36a10.25,10.25,0,0,0-1.18-1.56c-.15-.16-.28-.23-.49-.09a4.92,4.92,0,0,1-2.82.74c-1.14,0-2.28,0-3.43,0a3.61,3.61,0,0,0-2.53,1c-.1.1-.26.19-.22.33s.24.07.37.07Zm-26.56-6v0c.65,0,1.31,0,2,0,.25,0,.35-.08.33-.34s0-.75,0-1.13-.09-.32-.32-.32c-1.32,0-2.64,0-4,0-.23,0-.32.1-.32.33s0,.75,0,1.13.1.34.35.34Zm1.17-16.33h-1c-.33,0-.67,0-1,0s-.62-.12-.81.06.06.49,0,.75.09.34.36.34h4.77a2.23,2.23,0,0,0,.42,0,.5.5,0,0,0,.42-.5.52.52,0,0,0-.36-.55,1.38,1.38,0,0,0-.49-.06Z"/><path class="cls-2" d="M62,0a4.93,4.93,0,0,0-2.38.75h0A13.92,13.92,0,0,1,57,2.3a8.69,8.69,0,0,1-2.11,1A11.59,11.59,0,0,1,52,4.18a12.24,12.24,0,0,1-2.36.37l-2.46.28a6.14,6.14,0,0,0-1.67.77l-.78.81A7.53,7.53,0,0,0,44,8.06,23.33,23.33,0,0,0,44,10.51l.2,2.47.29,2.46c.32,1.66.66,3.31,1.1,4.93l.77,2.32a47.14,47.14,0,0,0,2.48,5.07c.19.34.54.23.83.29a20.08,20.08,0,0,1,2.47.23c.16-.09.76.23.37-.39a1.4,1.4,0,0,1-.39-.55,10.35,10.35,0,0,1-1.27-2,13,13,0,0,1-1.21-2.47l-.1-.26a9.63,9.63,0,0,1-.84-2.22,13.68,13.68,0,0,1-.72-2.46,18.37,18.37,0,0,1-.5-2.47A15.59,15.59,0,0,1,47.13,13,5.21,5.21,0,0,1,47,11.52a17,17,0,0,1-.1-2.74A.87.87,0,0,1,47.25,8a.74.74,0,0,1,.56-.33c.6-.08,1.21-.11,1.81-.17l2.47-.35,2.47-.62,2.46-1a.58.58,0,0,1,.37-.16l2.1-1.11c.62-.42,1.24-.84,1.87-1.24a.86.86,0,0,1,1-.11,8.35,8.35,0,0,1,2.1,1.22,36.26,36.26,0,0,0,4.93,2.23l2.46.64,2.47.4c.63.06,1.27.11,1.9.18a1.19,1.19,0,0,1,1.17,1.25c0,.53,0,1.07,0,1.6v1.36a23.42,23.42,0,0,1-.46,4.93,4,4,0,0,1-.16,1.11,16,16,0,0,1-.6,2.47,12,12,0,0,1-.84,2.46,9.36,9.36,0,0,1-1,2.15.42.42,0,0,1-.16.31,13.7,13.7,0,0,1-1.59,2.58,2.8,2.8,0,0,1-.57.77,8.38,8.38,0,0,1-1.37,1.59,5.52,5.52,0,0,1-1.12,1.11,10.11,10.11,0,0,1-1.74,1.47c-.22.21,0,.28.12.39a6,6,0,0,1,1.48,1.23c.35.49.67.44,1.08,0s.91-.8,1.37-1.19l.6-.59,1.87-2.12a.55.55,0,0,1,.25-.33,37.9,37.9,0,0,0,3-4.93l1-2.47.64-2.09a.46.46,0,0,1,.1-.38l.53-2.46.35-2.47.19-2.84.06-2.09L80.21,8a4.23,4.23,0,0,0-3.48-3.29,14.83,14.83,0,0,1-2.45-.28A9.94,9.94,0,0,1,71.81,4a17,17,0,0,1-4.93-1.84A12.93,12.93,0,0,1,64.76.94,5,5,0,0,0,62,0Z"/><path class="cls-2" d="M57.41,9.68a15.9,15.9,0,0,1,2.47-1,16.19,16.19,0,0,1,2.33-.24,12.91,12.91,0,0,1,2.58.3,18.63,18.63,0,0,1,2.46,1.09c.25.24.59.36.8.66.13.75,0,1-.79,1.17-.2-.11-.4-.21-.59-.32a6.18,6.18,0,0,0-1.88-.88,7.71,7.71,0,0,0-7.4,1.12A5,5,0,0,0,55.93,13a7.37,7.37,0,0,0-1.88,4.93,6.07,6.07,0,0,0,.34,2.66,2.47,2.47,0,0,0,.39,1,3.47,3.47,0,0,0,.74,1.29,6.11,6.11,0,0,0,1.85,1.9,4.2,4.2,0,0,0,1.12.7,4.35,4.35,0,0,0,1.35.52,5.64,5.64,0,0,0,2.48.32,7,7,0,0,0,4.09-1.19,2.57,2.57,0,0,0,.87-.61,5.67,5.67,0,0,0,1.55-1.65,7.7,7.7,0,0,0,1.47-4.93,6.83,6.83,0,0,0-.37-2.23,1.55,1.55,0,0,1,0-1c.69-.59,1.2-.46,1.5.4l.12.34a17.88,17.88,0,0,1,.4,2.45l-.25,2.45a18.29,18.29,0,0,1-.94,2.48l-1,1.48-.9,1L67.24,26.5a9.8,9.8,0,0,1-9.68.26,11.05,11.05,0,0,1-4-3.93,16.24,16.24,0,0,1-.95-2.6,13.35,13.35,0,0,1-.21-2.33A10.65,10.65,0,0,1,53.93,13l1-1.33,1.22-1.13Z"/><path class="cls-1" d="M69.91,13a1.24,1.24,0,0,0-.33.51,16.83,16.83,0,0,0-1.32,2,11.75,11.75,0,0,0-1,1.56c-.8,1.08-1.54,2.21-2.24,3.36l-.34.5c-.9.82-1.34.86-2.31.21l-.62-.84c-.77-1.11-1.55-2.21-2.32-3.32-.49-.71-.35-1.09.47-1.37H60c.81.49,1.43,1.22,2.22,1.74.26.23.53.44.77.68s.33.13.48-.06c.43-.53.88-1.06,1.33-1.58a3.88,3.88,0,0,0,.76-.87c.77-.79,1.48-1.63,2.17-2.48l1.94-2.17c.24-.27.49-.49.89-.34l.12.06a.78.78,0,0,1,.05,1.14C70.43,12.08,70.18,12.52,69.91,13Z"/></g></g></svg>