<?xml version="1.0" encoding="utf-8"?>
<!-- Generator: Adobe Illustrator 24.2.3, SVG Export Plug-In . SVG Version: 6.00 Build 0)  -->
<svg version="1.1" id="Layer_1" xmlns="http://www.w3.org/2000/svg" xmlns:xlink="http://www.w3.org/1999/xlink" x="0px" y="0px"
	 viewBox="0 0 397.8 397.8" style="enable-background:new 0 0 397.8 397.8;" xml:space="preserve">
<style type="text/css">
	.st0{fill:#2A3B8F;}
</style>
<g id="Layer_2_1_">
	<g id="Layer_1-2">
		<path class="st0" d="M397.8,193.8c0,107-87.4,193.8-195.3,193.8c-33,0.1-65.5-8.2-94.4-24.1L0,397.8l35.2-104
			c-18.4-30.1-28.1-64.8-28-100C7.2,86.8,94.7,0,202.5,0S397.8,86.8,397.8,193.8z M202.5,30.8c-90.5,0-164.2,73.1-164.2,162.9
			c0,34.4,10.9,67.8,31.3,95.5l-20.5,60.5l63.1-20c26.8,17.6,58.2,27,90.3,27c90.5,0,164.2-73.1,164.2-162.9S293.1,30.8,202.5,30.8z
			 M301.1,238.4c-1.2-2-4.4-3.2-9.2-5.5c-4.8-2.3-28.3-13.9-32.7-15.4c-4.4-1.6-7.6-2.4-10.8,2.4c-3.2,4.8-12.4,15.4-15.2,18.6
			c-2.8,3.2-5.6,3.6-10.4,1.2c-4.8-2.4-20.2-7.4-38.5-23.6c-14.2-12.6-23.8-28.1-26.6-32.9c-2.8-4.8-0.3-7.4,2.1-9.7
			c2.1-2.1,4.8-5.5,7.2-8.3c2.4-2.8,3.2-4.8,4.8-7.9c1.6-3.1,0.8-5.9-0.4-8.3s-10.8-25.7-14.8-35.2s-8-7.9-10.8-7.9s-6-0.4-9.2-0.4
			s-8.4,1.2-12.8,5.9s-16.7,16.3-16.7,39.6s17.1,45.9,19.5,49.1c2.4,3.2,33.1,52.7,81.8,71.7c48.7,19,48.7,12.7,57.4,11.9
			c8.8-0.8,28.3-11.5,32.3-22.6C302.3,249.9,302.3,240.4,301.1,238.4L301.1,238.4z"/>
	</g>
</g>
</svg>
