<svg xmlns="http://www.w3.org/2000/svg" viewBox="0 0 50.04 41.82"><defs><style>.cls-1{fill:#7ac044;}</style></defs><g id="Layer_2" data-name="Layer 2"><g id="Layer_1-2" data-name="Layer 1"><path class="cls-1" d="M0,23.93c2.6-1.85,5.2-3.69,7.78-5.57.48-.35.68-.34,1,.19,1.81,2.94,3.66,5.85,5.51,8.77.17.27.36.52.54.78s.12.45.35.46.29-.27.37-.46a97.5,97.5,0,0,1,6.55-8.22c6.44-7.17,13.67-13.3,22.46-17.44C45.94,1.8,48.94.53,49.37.3A3.77,3.77,0,0,0,50,0s0,1.69,0,2.06a19.11,19.11,0,0,0-4.55,2.42,71.64,71.64,0,0,0-20,19.79,93.42,93.42,0,0,0-9.24,16.88c-.09.22-.28.67-.39.67s-.33-.27-.51-.47q-7-7.87-14-15.76A5.41,5.41,0,0,1,0,23.93Z"/></g></g></svg>