<svg xmlns="http://www.w3.org/2000/svg" viewBox="0 0 957.22 296.15"><defs><style>.cls-1{fill:#2f2f55;}.cls-2{fill:#2f2f54;}.cls-3{fill:#e4301d;}.cls-4{fill:#5a3ea8;}.cls-5{fill:#7ec809;}.cls-6{fill:#452f93;}.cls-7{fill:#f85649;}.cls-8{fill:#fe812d;}.cls-9{fill:#26a4d7;}.cls-10{fill:#5fb111;}.cls-11{fill:#fd6803;}.cls-12{fill:#31bce7;}.cls-13{fill:#fe9f3a;}.cls-14{fill:#4ccfee;}.cls-15{fill:#fdfdfd;}.cls-16{fill:#fefefe;}</style></defs><title>Asset 1</title><g id="Layer_2" data-name="Layer 2"><g id="Layer_1-2" data-name="Layer 1"><path class="cls-1" d="M380.86,111.88c0-4.81.1-8.95,0-13.08-.07-2.16.6-2.87,2.81-2.86q18,.14,36,0c2.1,0,3.14.6,2.92,2.82a24.82,24.82,0,0,0,0,2.5q0,92.71.11,185.43c0,4.63-1.21,5.88-5.77,5.73-10.65-.34-21.32-.25-32,0-3.35.07-4.33-1-4.08-4.19.26-3.44.06-6.91.06-11.13-26.06,17.84-54,23.45-84,15.58-22.86-6-41.26-19-55.12-38.16A102.59,102.59,0,0,1,249,125.56C280.46,91.13,334.92,80.27,380.86,111.88ZM263.94,194.66c0,32.46,26.46,59.23,58.45,59.23s58.37-26.72,58.43-59.22c.05-32.74-26.47-59.63-58.67-59.47C290.12,135.36,263.9,162.15,263.94,194.66Z"/><path class="cls-2" d="M732.27,111.9c0-4.68.15-8.18,0-11.65-.17-3,.41-4.43,4-4.35,11.33.25,22.66.23,34,0,3.22-.06,3.79,1,3.79,3.95q-.12,94.24,0,188.48c0,3.4-1.07,4.11-4.22,4.06-11-.18-22-.26-33,0-4,.1-4.91-1.28-4.59-4.86.28-3.1.06-6.25.06-10.3-27.64,18.45-56.78,23.78-88,14.17-21.57-6.64-38.79-19.59-51.77-38-26.64-37.82-24.6-89.17,5-124.3,16.66-19.76,37.79-31.72,63.54-35.17S710.1,96.92,732.27,111.9ZM732,194.56c1.52-27-21-58.92-58-59.31-32.05-.34-58.32,26.38-58.48,59s26.16,59.84,58.44,59.55C710.75,253.5,733.48,221.75,732,194.56Z"/><path class="cls-2" d="M883.58,137.81c-23.14,0-45.3-.17-67.45.13-5.14.07-6.76-1.15-6.53-6.46.45-10.65.19-21.33.09-32,0-2.36.29-3.55,3.16-3.55q71.75.14,143.49.1c.27,0,.54.24.88.41-.08,1.75-1.28,3-2.07,4.41q-40.67,72.45-81.37,144.89c-2.8,5-2.79,5,3.05,5,23.83,0,47.67.09,71.5-.09,3.69,0,4.79.81,4.7,4.63-.28,11.16-.14,22.33-.07,33.5,0,2.28-.14,3.63-3.1,3.62q-76-.18-152-.17a8.52,8.52,0,0,1-1.24-.39Z"/><path class="cls-1" d="M486.53,110.91c2.42.22,3.49-1.3,4.82-2.13q36.12-22.56,77.56-12.83c3.32.78,5.08,1.42,4.26,5.77-2.1,11.11-3.57,22.34-5,33.57-.42,3.37-1.15,4-4.53,3-12.73-3.94-25.51-4.23-38.22.4-24.66,9-38.81,30.51-38.91,59.66-.1,29.32-.18,58.65.13,88,.06,5.31-1.56,6.32-6.4,6.14-10.32-.37-20.66-.24-31,0-3.34.07-4.52-.62-4.52-4.28q.18-93.71,0-187.43c0-3.33.63-4.62,4.3-4.54,11.16.25,22.32.18,33.48,0,3,0,4.21.79,4,3.92C486.35,103.69,486.53,107.31,486.53,110.91Z"/><path class="cls-3" d="M141.91,103c3,.55,5.4,2.26,7.92,3.73s5,3,7.48,4.58c1.68-1.57.42-3.6,1.26-5.13,3.56,1.34,7.12,2.69,10.69,4,10.23,3.8,19.94,8.94,30.5,11.88l-.09,34-44.53,17.6c-1.44-1.07-1.63-2.84-2.35-4.3-7.63-15.55-19.47-26.3-36.11-31.48-17.12-5.33-33.13-2.23-48.34,6.58L57,139.94c.21-2.46,2.35-2.41,4-3.06,25.35-10.14,50.71-20.25,76-30.52C138.71,105.65,141.48,105.88,141.91,103Z"/><path class="cls-4" d="M60.91,287.86c-24.47-10.53-41.64-28.4-52.59-52.48a16.38,16.38,0,0,1-.73-2.87l38-15.31c.79,1.46,1.58,2.91,2.36,4.37,8.54,16,21.41,26.49,39.18,30.73,16,3.82,30.66.31,44.56-7.77l18.07,6.79a1.6,1.6,0,0,0,.07.73c-2.59-.28-4.9.74-7.2,1.66C118,263.54,93.3,273.3,68.73,283.34,66,284.44,62.26,284.24,60.91,287.86Z"/><path class="cls-5" d="M149.78,251.32l-18.07-6.79c13.66-10,22.81-23,25.75-39.95,1.82-10.51.24-20.78-2.32-31L199.67,156q0,37.49,0,75c-6.17,2.36-12.43,4.52-18.5,7.12C170.76,242.61,159.78,245.81,149.78,251.32Z"/><path class="cls-6" d="M60.91,287.86c1.35-3.62,5.12-3.42,7.81-4.52,24.57-10,49.26-19.8,73.92-29.63,2.31-.92,4.61-1.94,7.2-1.66,1.4.46,2.83.84,4.2,1.38q22.8,9,45.57,18c.1,6,.1,12,.35,17.95.11,2.63-1.14,3-3.3,2.94-11.65-.07-23.31-.09-35,0-2.55,0-3.63-.73-3.5-3.4.17-3.6,0-7.21,0-11.67C127.07,297.6,94.93,302.09,60.91,287.86Z"/><path class="cls-7" d="M141.91,103c-.43,2.89-3.21,2.65-5,3.37-25.3,10.27-50.65,20.38-76,30.52-1.62.65-3.75.6-4,3.06l-3.06-1.79L25.77,127c12.92-15.65,29.61-25.48,49-30.68a95.65,95.65,0,0,1,61.56,3.77C138.25,100.85,140.45,101.24,141.91,103Z"/><path class="cls-8" d="M53.92,138.15,57,139.94l11.35,4.47c-12.38,9-21.16,20.45-25,35.45-2.49,9.7-1.87,19.42-.4,29.16-14.6-4.83-28.57-11.28-42.86-16.93.11-11.79,2-23.21,6.85-34.05,14.11-4.76,27.71-10.85,41.54-16.32C50.44,140.93,53.33,141.2,53.92,138.15Z"/><path class="cls-9" d="M199.73,47q0,17,0,34l-41.1,16.23c-1-11.38-.37-22.79-.37-34.19,0-10.73-.64-21.47.38-32.19,4.12,1.73,8.2,3.59,12.38,5.16C180.62,39.66,189.82,44.29,199.73,47Z"/><path class="cls-10" d="M199.63,271.46q-22.79-9-45.57-18c-1.37-.54-2.8-.92-4.2-1.38a1.6,1.6,0,0,1-.07-.73c10-5.51,21-8.71,31.42-13.19,6.07-2.6,12.33-4.76,18.5-7.12C200,244.49,200.18,258,199.63,271.46Z"/><path class="cls-11" d="M.07,192.09c14.28,5.65,28.25,12.09,42.86,16.93l2.68,8.18-38,15.31C1.59,219.69-.41,206.12.07,192.09Z"/><path class="cls-7" d="M158.64,97.27,199.74,81q0,20.51,0,41c-10.56-2.94-20.27-8.08-30.5-11.88-3.57-1.32-7.13-2.67-10.69-4A22,22,0,0,1,158.64,97.27Z"/><path class="cls-12" d="M199.73,47c-9.91-2.76-19.11-7.39-28.7-11-4.18-1.57-8.26-3.43-12.38-5.16a31.88,31.88,0,0,1,.12-8.86c5.16-.61,9.52-3.45,14.31-5.09,9-3.07,17.35-7.85,26.72-9.91Z"/><path class="cls-13" d="M53.92,138.15c-.58,3-3.48,2.78-5.45,3.56C34.63,147.19,21,153.28,6.92,158A80.35,80.35,0,0,1,25.77,127Z"/><path class="cls-14" d="M199.79,7c-9.37,2.06-17.73,6.84-26.72,9.91-4.79,1.64-9.15,4.48-14.31,5.09-1.37-6.57-.34-13.22-.59-19.82C158.09,0,159.69,0,161.27,0c11.82,0,23.64-.06,35.46,0C202.62.1,198.91,4.64,199.79,7Z"/><path class="cls-15" d="M263.94,194.66c0-32.51,26.18-59.3,58.2-59.46,32.2-.16,58.73,26.73,58.67,59.47-.05,32.5-26.41,59.22-58.43,59.22S264,227.12,263.94,194.66Z"/><path class="cls-15" d="M732,194.56c1.48,27.2-21.25,58.94-58,59.26-32.28.28-58.61-26.76-58.44-59.55s26.43-59.37,58.48-59C711,135.64,733.51,167.58,732,194.56Z"/><path class="cls-16" d="M45.6,217.2,42.92,209c-1.47-9.74-2.09-19.46.4-29.16,3.85-15,12.63-26.48,25-35.45,15.22-8.81,31.23-11.91,48.35-6.58,16.64,5.19,28.47,15.93,36.11,31.48.72,1.46.9,3.23,2.35,4.3,2.56,10.19,4.14,20.46,2.32,31-2.93,17-12.09,29.91-25.75,39.95-13.9,8.08-28.59,11.58-44.56,7.77C69.38,248.06,56.51,237.58,48,221.57,47.18,220.11,46.39,218.66,45.6,217.2Z"/></g></g></svg>