<svg xmlns="http://www.w3.org/2000/svg" width="16" height="16.375" viewBox="0 0 16 16.375">
  <defs>
    <style>
      .cls-1 {
        fill: #333;
      }
    </style>
  </defs>
  <path id="filter" class="cls-1" d="M15.806,0H1.185A.687.687,0,0,0,.572.372.7.7,0,0,0,.626,1.1L5.983,8.631l.006.008a1.527,1.527,0,0,1,.3.907v6.143a.683.683,0,0,0,.684.687.705.705,0,0,0,.27-.054l3.01-1.146a.651.651,0,0,0,.449-.642V9.545a1.527,1.527,0,0,1,.3-.907l.006-.008L16.364,1.1A.69.69,0,0,0,15.806,0ZM10.331,8.146a2.364,2.364,0,0,0-.462,1.4v4.887L7.122,15.478V9.545a2.363,2.363,0,0,0-.462-1.4L1.459.831H15.532Zm0,0" transform="translate(-0.495 0)"/>
</svg>
