<svg xmlns="http://www.w3.org/2000/svg" viewBox="0 0 797.95 674.15"><defs><style>.cls-1{fill:#2a3b8f;}</style></defs><title>h-family-n</title><g id="Layer_2" data-name="Layer 2"><g id="Layer_1-2" data-name="Layer 1"><path class="cls-1" d="M401.43,318.81c17.47-15,31.72-31,37.69-52.66A73,73,0,0,0,442,248.08c.34-22.83-.3-45.67.3-68.49.58-21.85,4.73-43.14,14.25-63C473,82.25,499.86,60,536,48.69c13.5-4.21,27.34-6.1,41.46-7.29,21.11-1.77,41,1.88,59.63,11.45a90,90,0,0,1,28,21.84c1.57,1.86,5.21,2.39,8,2.73C694,80,708.28,91.84,718.32,109.47c9.79,17.18,14.55,36,15.35,55.53,1,24.93,1.56,49.93,1,74.87-.6,25.67,10.92,44,31.09,58.16,3,2.08,6.05,4,9.07,6,.26.17.38.54.65.94-35,33.54-74.35,52.62-124.64,35.42,0,7-.14,12.64.13,18.25,0,1,1.6,2.39,2.75,2.8,11.5,4.13,23.29,7.54,34.55,12.24,15,6.27,28.55,15.28,41.05,25.73a186.91,186.91,0,0,1,36.93,40.78c17.19,26.21,28.09,54.68,30.68,86.08.55,6.61,1,13.26,1,19.89.08,53.16,0,6.32,0,59.48,0,1.65,0,3.3,0,5.66H538c7.2,20.91,8.8,41.51,7.46,62.82H253.26c-1.07-21-.64-41.67,7.3-62.51H.16c0-2.38,0-4,0-5.63,0-68.83-.47-37.66.21-106.47C.69,466.65,11.85,437,32.72,411.24c17.77-21.95,39.85-38.07,66.55-46.92,12.27-4.07,25.51-5.24,38.32-7.61,3.22-.59,6.52-.72,10.29-1.12,0-10.68.08-21-.1-31.27,0-1.23-1.2-2.77-2.27-3.61-20.53-16.15-33-37.17-38.43-62.61a6.61,6.61,0,0,0-2.17-3.55c-12-9.49-17.49-22.44-19.88-37.11-1.21-7.45-.68-14.47,3.91-20.76.68-.93,1.29-2.17,2.24-2.59,3.8-1.69,3.18-4.52,2.32-7.56-5.9-21-9.5-41.48-9.12-63.23.45-26.33,5.87-51.62,21.15-73.92C122.75,24.26,147,9.93,176.33,3.86A170.55,170.55,0,0,1,210.79,0c30.31,0,53.7,13.31,70.06,39,1.16,1.82,4.18,3.12,6.49,3.41C302.76,44.4,313.44,53,321,66c12.71,21.78,16.3,45.51,12.78,70.06-2.44,17-6.88,32.69-10.38,49.53-.58,2.81-1.93,5.62,1.43,8,10.28,7.41,12.94,16.94,8.36,29.2-4,10.67-9.32,20.47-18.32,27.9-1.1.91-1.69,2.8-1.95,4.33-4.39,26.48-17.13,48.05-37.83,65-1.32,1.08-2.93,2.81-3,4.28-.26,10.29-.14,20.59-.14,31.08,9.22,1.1,18,1.81,26.57,3.24,13.51,2.33,17.44,3.69,22.37,4.38,1.53-2.28,20.56-32.75,48.31-38.75C424,305,487.68,359.9,487.68,359.9l38.5,3s.16-3.15,0-6.36c-.2-4.8-.05-9.61-.05-15.47C480.54,355.18,440.57,341.18,401.43,318.81ZM148.05,375c-8,.55-15.52.41-22.77,1.66C94.66,381.9,69,396.54,48.94,420.11c-20.38,23.91-29.87,52.25-30,83.46-.3,61.16-.09,22.33-.08,83.49,0,1.76.17,3.52.28,5.61h194c17.33,0,34.67,0,52,0,3,0,5.15-.47,6.93-3.43,6.76-11.25,15.09-21.42,25.48-29.36a219,219,0,0,1,28.64-18.17c7.12-3.86,15.1-6.14,23.23-9.33a14.12,14.12,0,0,0-2.18-3.12c-16.1-13-25.76-29.74-29.36-50.07-.49-2.79-1.58-4.92-4.58-6.34a18.58,18.58,0,0,1-7-6.12c-7.06-10.35-7.73-22.25-.33-33.7a13.15,13.15,0,0,0,1.86-6.88c-.07-11.36-1.77-22.87-.44-34,2.16-18.11,11.57-10.31-6.69-14.31-9.33-2-18.79-3.4-28.84-2,0,6,.21,11.61-.12,17.23a8.09,8.09,0,0,1-2.59,5.41,69.86,69.86,0,0,1-12.49,7.94,107,107,0,0,1-54.72,10.24c-17.89-1.4-34.26-6.31-49.14-16.28-3.21-2.15-5.16-4.74-4.82-9C148.36,386.25,148.05,381.11,148.05,375Zm379,5.85c-.78-.1-38.42-6.26-38.42-6.26s5.53,33.58,2.49,49c-.63,3.2.84,7,1.87,10.3.86,2.81,2.89,5.27,3.7,8.09,3.5,12.28-1,23.7-11.65,31.1a11.07,11.07,0,0,0-4.07,5c-1.34,3.86-1.71,8-2.93,12a81,81,0,0,1-23.69,36.6c-1.86,1.68-3.41,3.69-5.59,6.08,2.65,1,4.14,1.58,5.67,2,30.73,9.44,55,27.31,71.9,54.88,1.59,2.59,3.62,3.18,6.54,3.18q120.48-.12,241-.08c1.6,0,3.2-.19,5.21-.32v-6.86c0-45.83.19,8.34-.13-37.48a241.57,241.57,0,0,0-2.9-35c-4.76-30.82-18.62-57.57-39-80.82-19-21.64-42.33-37.28-69.35-47.29-5.26-1.95-10.79-3.17-16.94-4.93,0,3-.34,4.89.06,6.59,2,8.62-3.14,13.14-9.55,16.76a104.09,104.09,0,0,1-60.3,13.37c-17-1.25-32.66-5.84-47.15-14.77-4.5-2.77-7.73-5.79-6.8-11.7C527.43,387.26,527.05,384.23,527.05,380.83Zm-1.9-58.16c-3.33-5.31-6-8.88-8-12.82-12.4-25.25-15-51.8-7.65-78.71,6.32-23.12,21.2-38.66,45.36-44.43,13.44-3.21,26.84-6.77,40-11.11,13.7-4.54,26.39-11.26,37.06-21.34,5-4.7,10.28-9,15.67-13.72,2.8,4.75,5.11,8.93,7.67,12.94a93.63,93.63,0,0,1,14.46,43.27c1.3,16.2,2.26,32.52,1.75,48.73-.38,12.1-2.91,24.2-5.25,36.16-2.44,12.47-8.67,23.49-15.24,34.22-1.56,2.55-1.66,4.33,1.33,5.43,16,5.85,32.36,8.08,49.3,5.63,15-2.17,27.61-9.53,40.12-17.38,3.86-2.42,4.09-4.31.72-7.08-1-.84-1.9-1.87-2.84-2.81-15.67-15.75-23.82-34.46-23.7-56.95.13-25.12.21-50.28-1.1-75.35-.65-12.37-3.63-24.83-7.15-36.78-3.27-11.1-9.2-21.13-19.19-28.15-7.86-5.53-16.6-7.15-25.84-6.82-3.92.14-6.05-1.37-8.52-4.37-4.66-5.67-9.67-11.34-15.52-15.68C622,63.21,603.06,59.31,582.52,60.13c-18.39.73-36.19,3.35-53.21,10.41-28,11.61-47.45,31.68-58.52,59.9-7.36,18.76-9.77,38.36-9.88,58.33-.11,18.83,0,37.66,0,56.49a75.25,75.25,0,0,1-.22,10C457.92,275.38,449.31,293,437,308.89c-4,5.15-3.94,5.73,1.86,8.17C458,325.15,478,329.55,498.89,327.5,507.31,326.67,515.61,324.47,525.15,322.67ZM295,206.15c0-11.5.39-23-.13-34.49a182.52,182.52,0,0,0-3.1-26.58c-2.36-12.11-7.27-22.36-14-32.77-3-4.64-5-5.06-8.18-2-15.4,14.93-34.14,23.69-54.56,29.07-17.9,4.72-36.27,4.61-54.7,5.11-14.14.39-26.29,5.12-31.21,19.87a75,75,0,0,0-4.14,21.32c-.55,20.48-.91,41,0,61.48.82,18.74,8.51,35.15,21.13,49.17,11.06,12.29,24.81,20.14,40.39,25.21a14.2,14.2,0,0,1,6.53,4.65c10,13.15,26,11.58,33.35-.2,1.26-2,4-3.56,6.34-4.35,11.22-3.76,21.67-8.68,31-16.2,20.56-16.6,30.52-38.21,31.21-64.3C295.28,229.49,295,217.82,295,206.15ZM526.71,655.39c.14-1.05.31-1.84.33-2.63a39.14,39.14,0,0,0,0-5c-1.53-15-4.91-29.44-12.16-42.9-14.9-27.65-37.37-45.43-67.7-53.61-5.7-1.54-9.52-.36-13.59,3.83-9.31,9.59-21.43,13.87-34.37,14a45.37,45.37,0,0,1-32.44-12.53c-5.73-5.45-11.46-8.15-19.13-4.28-2.75,1.39-5.92,1.92-8.81,3.09C306,568.66,285,592.64,275,626.33c-2.75,9.3-4.23,19-2.82,29.06ZM106.12,164.45l2.42.63c1.07-1.6,2.47-3.08,3.17-4.84C115,152,118.9,145.38,126,139.66c11.9-9.61,25.8-12.29,40.63-13.07,13.48-.71,27.08-1.62,40.32-4.11,19.75-3.72,37.94-11.38,51.69-27,4.42-5,8.54-10.29,13.32-16.06,7.14,8,14.55,15.43,20.88,23.68,8.86,11.55,13.3,25.26,17,39.19.44,1.66,1.56,2.15,2.36,3.71l1.55-.68c4.23-21.25,3.87-41.36-3.87-61.81-5.17-13.66-14.35-25-31.18-23-7.15.87-9.28-3-11.78-8.3-10.78-22.84-29.76-33.22-54.29-33.73-17.9-.38-35.54,2-52.31,8.89-14.85,6.09-27.38,15.25-37.07,28.11-14.62,19.4-19.8,42-20.17,65.55C102.83,135.86,105,149.66,106.12,164.45Zm547.2,68.19c-.43-9.62-.13-19.34-1.48-28.83-1.45-10.22-4.46-20.21-6.73-30.32-.85-3.79-3.05-3.45-5.48-1.8-2.59,1.76-4.86,4-7.5,5.68-21.92,13.9-45.89,22.58-71.32,27.09-16.52,2.93-27,12.24-32.33,27.84-5.43,15.86-4.67,32-2.1,48.19,2,12.47,6.73,23.77,15.84,32.94,7,7,16.35,9,25.15,12.21a20.47,20.47,0,0,1,6.73,3.76c9,8.29,19.72,8.24,28.83-.12a17.28,17.28,0,0,1,6.79-3.63c8-2.27,16.22-4.15,20.7-12.07,5.74-10.17,12.15-20.14,16.34-31C652.9,266.69,653.51,249.64,653.32,232.63ZM463.15,453.44c0-5.66.06-11.33,0-17a35.45,35.45,0,0,0-35.28-35q-28.73-.13-57.46,0c-19.11.1-35.32,16.43-35.46,35.63-.08,10.33-.3,20.66.05,31,.53,15.62,6,29.44,16.81,40.83,15.68,16.58,35,23.44,57.6,19.78,24.17-3.92,40.6-17.62,49.87-40.35C463.9,476.93,463,465.19,463.15,453.44Zm10.18-46.74a33.32,33.32,0,0,0,.65-3.61,26.33,26.33,0,0,0,0-5c-3.69-22.92-16.07-39.63-36.3-50.74-16.69-9.16-34.57-10.94-53-7.89-25.11,4.16-43.81,17.49-55,40.62-3.82,7.92-6,16.32-4.43,26.41a34.78,34.78,0,0,0,3.15-2.73c12.48-14.29,28-21.51,47.17-21.17,15.49.28,31,.19,46.48,0,18.89-.2,34.92,5.83,47.12,20.76C470.07,404.44,471.38,405.15,473.33,406.7ZM167.84,333.58a26.27,26.27,0,0,0-.86,3.86c0,15.83-.13,31.66.11,47.49,0,1.59,1.85,3.89,3.42,4.6,26.11,12,52.31,11.87,78.58.33,3-1.3,3.72-3.18,3.7-6.17-.11-14.83,0-29.66-.07-44.49,0-1.4-.3-2.8-.64-5.73-5.55,3.18-11.08,4.95-14.63,8.63-15.95,16.53-40.49,15.77-55,.1C178.93,338.37,173.15,336.61,167.84,333.58Zm464.1,3.4c-8,3.53-15.32,5.52-21.18,9.63-14,9.78-31,9.72-44.75-.15-5.62-4-12.81-5.92-20.28-9.23,0,17.43,0,33,.09,48.67a4.07,4.07,0,0,0,2,3,92.11,92.11,0,0,0,13.17,5.66c13.5,4.06,27.38,5.45,41.27,2.95,8.21-1.48,16.21-4.3,24.21-6.81,3.95-1.24,5.78-3.93,5.64-8.58-.37-12.31-.12-24.63-.12-37Z"/></g></g></svg>