<svg xmlns="http://www.w3.org/2000/svg" viewBox="0 0 800.33 592.39"><defs><style>.cls-1{fill:#2a3b8f;}</style></defs><title>Asset 1</title><g id="Layer_2" data-name="Layer 2"><g id="Layer_1-2" data-name="Layer 1"><path class="cls-1" d="M.12,592.39c0-2.09,0-3.88,0-5.66,0-27.66-.31-55.33.08-83,.48-34.2,11.11-64.9,32.79-91.68q35.14-43.39,90-52.86c7.83-1.37,15.84-1.64,24.45-2.49,0-10.56.06-21-.09-31.41,0-1.09-1.1-2.42-2-3.19-20.46-16.35-33.28-37.3-38.29-63a5.81,5.81,0,0,0-1.92-3.25C91,245,85.69,229.69,84.34,212.9c-.55-6.93,1.63-13.7,7.86-18.45,1.25-1,1.84-3.86,1.52-5.65C91.06,174.17,87,159.7,85.47,145c-3.82-36.33,1.24-71,24.06-101,12.18-16,28.29-27.24,47.24-34.22C179.25,1.43,202.4-1.8,226.24,1,250.65,3.8,273.48,11,293,26.52,313.8,43,326.14,64.8,331.48,90.33a179.79,179.79,0,0,1,3.91,38.58c-.22,19.72-3.53,39.23-8.87,58.28-1,3.51-1.05,5.79,2.38,8.48,5.24,4.11,7.09,10.68,6.61,17-1.16,15.4-5.75,29.68-17.66,40.36a19,19,0,0,0-6.16,10.66c-5.39,23.58-17.84,42.76-36.63,57.93-1.18,1-2.55,2.59-2.58,3.94-.21,10.28-.12,20.57-.12,31.16,63.8,2.73,108.42,33.82,135.8,89.37,8.62-10.33,16.82-21.11,26-31,24.54-26.39,54.64-43.59,89.64-52.07,3.66-.89,4.52-2.44,4.36-5.75-.22-4.32-.09-8.66-.17-13a7.89,7.89,0,0,0-.71-1.89c-44.89,13.91-84.76-.17-122.17-21.47,4.82-5.48,9.47-10.84,14.2-16.12,15.3-17.09,25.17-36.32,24.84-60-.3-21.33-.51-42.67.09-64,.62-22,4.79-43.45,14.44-63.47C475.22,83.11,502.15,61,538.37,49.77c13.52-4.18,27.36-6,41.47-7.21C600.78,40.83,620.48,44.47,639,54c10.75,5.53,20.55,12.58,28.35,22.21,1.49,1.84,5.34,2.1,8.18,2.47,20.64,2.64,34.75,14.43,44.71,31.88,9.81,17.17,14.59,36,15.41,55.51,1,24.6,1.72,49.27,1,73.86-.91,29.21,13.43,48.53,36.79,63.08,1.38.86,2.74,1.75,4.44,2.83-17,16.2-35.22,29.29-57.15,37.14-22.56,8.07-44.83,5.24-67.86-.93,0,6.47-.29,12.11.22,17.68.11,1.23,2.91,2.74,4.71,3.2,21,5.44,40.64,13.88,58.44,26.26,43.35,30.17,70.63,70.93,80.73,123,4.51,23.25,3.28,46.69,3.23,70.12,0,3.15-.3,6.3-.48,10.07ZM148,375.74c-9.22,1-17.64,1.41-25.85,2.9-29.58,5.36-54,20.17-73.38,42.77-20.42,23.83-29.55,52.24-30,83.42-.28,21.16.15,42.32,0,63.48,0,4.31,1,5.65,5.54,5.65q185.45-.19,370.9-.11c1.75,0,3.49-.21,6.49-.41-.88-29.76-1-59-2.85-88.15-1.56-24.24-12.33-45.44-27.82-63.74-17.94-21.22-40.58-35.61-68-41.94-10.15-2.35-20.36-3.92-31.37-2.67,0,5.56-.26,10.86.09,16.13.23,3.46-1,6.14-3.69,7.55-8.72,4.53-17.32,9.63-26.55,12.79-16.32,5.57-33.26,6.26-50.33,3.23-14.82-2.64-28.6-7.71-40.58-17a8.16,8.16,0,0,1-2.57-5.43C147.81,388.62,148,383,148,375.74ZM419.2,573.86H774.39a22,22,0,0,1,2.5,0c3.07.35,4.09-1,4-4-.35-13.95-.16-27.92-.92-41.85-1.07-19.84-7-38.53-15.52-56.33a167.57,167.57,0,0,0-44.35-56.48c-18.8-15.67-40.17-26.26-63.47-33.2-1.34-.4-2.85-.2-4.86-.32,0,4.26-.17,8.06.06,11.85.17,2.86-.28,5.17-3,6.61-7.83,4.15-15.3,9.24-23.53,12.28-18.35,6.76-37.49,7.55-56.59,3.85-13.66-2.65-26.59-7.63-37.52-16.67a8.51,8.51,0,0,1-2.92-5.05c-.43-4.08-.14-8.25-.14-13.06-2.19.44-3.74.65-5.23,1.06a163.91,163.91,0,0,0-58.2,29.53,168,168,0,0,0-47.58,58.17c-1.24,2.47-1.34,5.79-1.12,8.65.72,9.36,2.45,18.67,2.66,28,.46,20.32.22,40.66.29,61C418.94,569.68,419.09,571.47,419.2,573.86ZM649.47,141.74c1.29,2.14,2.31,3.81,3.32,5.48,7,11.62,14.17,23.23,16.52,36.81a219.18,219.18,0,0,1,3.47,30.52c.49,16.07,1,32.26-.44,48.23-1.73,19.62-8.66,37.89-19.56,54.47-1.77,2.69-1.09,4.57,1.73,5.29,8.78,2.23,17.53,5,26.47,6.1,22.08,2.81,41.84-4,60-16.28,7.25-4.92,7.31-4.89,1.12-11-16.19-16-24.6-35.18-24.19-58.24.37-20.65.53-41.34-.1-62a240.86,240.86,0,0,0-3.95-34.43A79.75,79.75,0,0,0,700,113.13c-8.42-11.59-19.82-16.64-33.72-16.34-4.95.11-8-1-10.78-5.57-5.32-8.85-13.76-14.59-22.64-19.55-15.15-8.47-31.41-11-48.68-10.34C566,62,548.37,64.7,531.48,71.65c-28.25,11.63-47.71,31.8-58.81,60.22-7.34,18.79-9.69,38.38-9.81,58.34-.11,17.66-.43,35.34.07,53,.72,25.64-9,47.29-24.2,67.06-3.77,4.91-3.68,5.65,2.29,8.13,19.09,7.9,38.86,12.34,59.59,10.29,8.54-.84,16.95-3.07,26.4-4.85-3.24-5.26-6-9-8-13.05-12.35-25.1-14.86-51.52-7.63-78.25,6.25-23.1,21-38.78,45.22-44.58,13.44-3.23,26.83-6.82,40-11.12,13.89-4.55,26.7-11.36,37.47-21.59C638.93,150.61,644.17,146.36,649.47,141.74ZM124.83,207.25h1c0,15.46-.91,31,.24,46.36,1.28,16.95,8.93,31.7,20.47,44.21a87.37,87.37,0,0,0,38.63,24.3c3.46,1.1,6.84,3.87,9.22,6.73,7.89,9.51,21,11,29,1.61,4.87-5.74,10.72-8.31,17.29-10.56,30.93-10.58,54.22-42.85,54.44-75.47.11-16.16.24-32.34-.07-48.49a134.35,134.35,0,0,0-2.19-23.22c-2.08-10.57-6.72-20-17.82-23.87a54.64,54.64,0,0,0-16-3.14c-16.76-.53-33.47-1.29-49.86-5.1-21.42-5-41.1-13.59-57.47-28.69-4.92-4.53-6.25-4.61-9.84.94-11,17-16.06,35.89-16.9,55.88C124.4,181.56,124.83,194.41,124.83,207.25Zm186.7-41,1.62-.65c1.29-11.44,3.67-22.9,3.59-34.33-.09-13.13-1.09-26.53-3.93-39.31-8-36.12-30.56-59.14-66.43-68.47a136,136,0,0,0-26.31-3.85c-8.81-.51-17.9-.67-26.53.89-19.31,3.49-33.15,14.81-41,32.89-2.44,5.65-5.65,8-11.93,7.32-13.52-1.43-22.26,5.79-27.89,17.21-10.86,22-10.85,45.14-5.92,69A8.27,8.27,0,0,0,110,143c1.19-3.59,2-7.28,3.11-10.92,6.17-21.14,18.67-37.91,35.56-51.74,1.79,2.3,3.49,4.51,5.21,6.7,8.68,11,18.51,20.64,31.47,26.67,18.38,8.55,37.92,11.87,57.92,13.16,6.78.44,13.6.37,20.35,1,22.27,2.21,37.77,13.32,45.18,34.91C309.21,164.1,310.59,165.09,311.53,166.23Zm343.75,67.69c-.43-9.62-.13-19.34-1.47-28.83-1.44-10.22-4.46-20.21-6.71-30.32-.95-4.26-3.38-3.38-5.84-1.71s-4.57,3.85-7.07,5.43c-21.92,13.89-45.88,22.61-71.31,27.12-16.52,2.93-27,12.15-32.4,27.76-5.47,15.86-5,32.1-2,48.16,1.52,8.12,4.84,16.08,8.46,23.58,6.41,13.31,19.26,17.75,32.28,21.7a17.93,17.93,0,0,1,6.76,3.68c9.09,8.34,19.75,8.34,28.83,0a19,19,0,0,1,7.24-3.78c7.77-2.32,15.29-4.55,20.38-11.83,6.86-9.81,12.85-20,16.57-31.41C654.24,267.38,655.38,250.75,655.28,233.92ZM167.46,335.69a9.24,9.24,0,0,0-.55,2.06c0,16.33-.11,32.66.07,49,0,1.35,1.49,3.25,2.79,3.92,10,5.12,20.59,7.53,31.83,8.53a91.84,91.84,0,0,0,47.79-8c2.86-1.33,3.78-3,3.75-6.06-.15-15-.06-30-.09-45a41.48,41.48,0,0,0-.43-4.21c-7.77,1.28-11.54,3.14-16.13,7.66a43.65,43.65,0,0,1-5.51,5c-15,10.41-34.14,8.74-47-4.44C179.37,339.34,173.82,337.2,167.46,335.69Zm380.69,3.43c-.23,2.44-.42,3.58-.43,4.72-.12,13.15,0,26.31-.43,39.45-.12,4.12,1.21,6.51,4.9,8.07,25.72,10.9,51.33,11,76.92-.45,3-1.33,4.08-3.2,4.05-6.53-.09-13,.14-26,.22-39,0-1.73-.18-3.45-.34-6.5-7.13,3.12-13.91,4.91-19.31,8.67-15.21,10.6-31.61,10.48-46.75-.24C561.66,343.58,554.82,341.95,548.15,339.12Z"/></g></g></svg>