<svg xmlns="http://www.w3.org/2000/svg" viewBox="0 0 419.84 467.35"><defs><style>.cls-1{fill:#2a3b8f;}</style></defs><title>Asset 2</title><g id="Layer_2" data-name="Layer 2"><g id="Layer_1-2" data-name="Layer 1"><path class="cls-1" d="M147.5,313.34c0-9.39.09-18.3-.11-27.2,0-1.21-1.22-2.72-2.38-3.54-20.15-14.2-32.73-32.4-37.91-54.6a5.66,5.66,0,0,0-1.91-3.32c-12.66-8.55-18-20.37-20.35-33.74A20.71,20.71,0,0,1,89,173.52a5.64,5.64,0,0,1,2-1.94c3.92-1.56,3.34-4.09,2.43-7-5.83-18.45-9.4-37.29-9.08-56.41.39-23.06,6-45.09,21.14-64.57C122.64,21.52,147,9.16,176.22,3.47,192.53.29,209-1,225.72.84c26.1,2.85,50.25,9.58,70.64,25.1,22.25,16.93,33.16,38.74,37.42,63.65,4.37,25.55-.05,50.47-7.39,75.14-.88,3-.67,4.84,2.51,7,5.23,3.63,7.12,9.37,6.65,14.95-1.17,13.68-5.78,26.41-18,35.71-3.52,2.67-4.79,5.54-5.74,9.1-5.48,20.68-17.86,37.54-36.66,50.86-1.19.84-2.57,2.27-2.6,3.45-.22,9-.12,18.07-.12,27.12,9.9,1.05,19.38,1.6,28.65,3.13a150.22,150.22,0,0,1,72.69,33.3c20.69,17.17,34.61,37.79,41.33,62a111.49,111.49,0,0,1,4.43,27.1c.58,26.32.21,0,.2,26.33,0,.72-.11,1.43-.2,2.56H.41c-.09-1.54-.24-3-.24-4.37,0-24.73-.42,3.21.08-21.5C.86,411.78,11.49,385.1,33,361.84c25.23-27.33,57.76-42.95,97.35-47.43C135.88,313.78,141.53,313.7,147.5,313.34ZM19,451.13h375c1.17,0,2.34-.08,3.5,0,2.6.18,3.55-.85,3.5-3.09-.1-4.53.09-9.07,0-13.6-.56-20.7-.2,11.21-2.06-9.4-1.91-21.21-12.8-39.72-28.46-55.71-18.5-18.9-41.82-31.3-69.72-36.6-9.33-1.77-18.79-3-28.84-1.74,0,4-.47,7.88.11,11.58.86,5.51-2,8.8-7,11.27-2.73,1.34-5.38,2.83-8.19,4a116.3,116.3,0,0,1-55.16,8.88c-18-1.32-34.54-5.57-49.33-14.89-2.86-1.8-4.39-3.55-4.22-6.72.26-4.75.07-9.52.07-14.36-2.18-.09-3.49-.18-4.81-.2-20.43-.18-39.31,4.77-57.21,13.16-22.82,10.7-40.09,26.18-52.33,46.1-10.35,16.83-14.49,35-14.7,53.93-.2,18,0-16.69,0,1.3ZM124.79,182.05h1c0,13.56-.89,27.18.24,40.66,1.25,14.84,8.92,27.71,20.33,38.73,11.06,10.68,24.77,17.62,40.34,22,2.51.71,5.43,2.1,6.76,4,7,9.74,22.82,11.69,31.81,1.34,3.17-3.65,7.08-5.22,11.65-6.63a97,97,0,0,0,15.41-5.84c24.92-12.72,40.4-31.7,42.37-56.92a366.56,366.56,0,0,0-.94-62.58c-1.82-19.37-11.54-28.16-34.89-28.9-16.89-.53-33.76-1.14-50.22-4.56C187.49,118.94,168,111.4,151.8,98.26c-5-4.07-6.34-4.08-10.15,1.09-11,14.87-15.91,31.43-16.75,48.92C124.36,159.51,124.79,170.79,124.79,182.05Zm186.67-35.93,1.82-.82c1.29-10,3.67-20,3.58-30-.11-11.64-1-23.52-4-34.83C304.78,49.12,282.57,28.91,247,20.74a164.82,164.82,0,0,0-26.69-3.49c-8.65-.53-17.62-1-26,.42-19.39,3.25-33.82,12.91-41.71,29.14-2.37,4.88-5.46,7.09-11.82,6.48-13.67-1.3-22.21,5.23-28.17,15.29-9.29,15.69-9.45,32.6-8.68,49.6.16,3.62,1.58,7.19,2.42,10.78l1.2.38c.86-1.14,2.06-2.17,2.53-3.42,1.22-3.27,2.05-6.66,3.16-10,6.18-18.49,18.67-33.18,35.46-45.33,1.77,2,3.41,4,5.15,5.89,8.56,9.31,18,17.62,30.54,22.94,18.55,7.85,38.31,10.72,58.54,12,6.93.44,13.91.33,20.81.93,22.21,1.94,37.63,11.72,45,30.59C309.19,144.16,310.53,145.08,311.46,146.12ZM169,294l-1.45,1.27a15.4,15.4,0,0,0-.41,2.51c0,13.6.07,27.21-.1,40.81,0,2.81,1.67,3.86,4.06,4.77,26.1,10,52.14,10,78.18-.21,2.59-1,3.73-2.38,3.7-5-.13-13.31,0-26.62-.09-39.93a19.46,19.46,0,0,0-.67-3.43c-6.41,1.63-11.85,3.43-16.42,7.54-14.49,13.05-36.81,12.8-51.84.28C179.73,299.13,174.06,296.89,169,294Z"/></g></g></svg>