<svg xmlns="http://www.w3.org/2000/svg" viewBox="0 0 419.97 550.23"><defs><style>.cls-1{fill:#2a3b8f;}</style></defs><title>health-female</title><g id="Layer_2" data-name="Layer 2"><g id="Layer_1-2" data-name="Layer 1"><path class="cls-1" d="M.61,550.23c-.55-30.84-2.42-61.13,5.11-90.87A191.86,191.86,0,0,1,40.44,388C67,353.78,101,331.19,143,320.68c3.59-.9,4.93-2.41,4.69-6.1-.3-4.57-.07-9.17-.07-14.53-45.71,14.14-85.55,0-124.54-22.15C34,268.09,44,258.51,51.28,246.46c7.59-12.59,12.47-25.92,12.45-40.81,0-22.33-.44-44.67.15-67,.58-21.85,4.72-43.15,14.24-63C94.55,41.31,121.42,19,157.59,7.71c13.66-4.26,27.67-6.17,42-7.32,20.58-1.65,40,1.83,58.24,11C268.9,17,279,24.22,287,34.09c1.42,1.74,5,2,7.72,2.35,20.47,2.43,34.65,14,44.71,31.12s14.91,35.89,15.8,55.39c1.15,24.92,1.76,49.93,1,74.86-.88,29.21,13.47,48.51,36.83,63.05,1.38.86,2.73,1.76,4.39,2.82-35.43,33.83-74.68,53-125,35.74,0,7-.29,12.6.22,18.17.11,1.22,2.93,2.71,4.74,3.18,21,5.44,40.64,13.88,58.43,26.27,43.34,30.17,70.62,70.94,80.71,123,4.5,23.24,3.28,46.69,3.22,70.11,0,3.15-.29,6.3-.48,10.05Zm18.87-18.85H400c2.14-34,.45-67-14.11-98.26Q362,381.85,312.5,354.5a154.93,154.93,0,0,0-41.08-15.56c0,5.08.25,9.22-.11,13.31-.16,1.83-1.07,4.37-2.46,5.17-7.93,4.6-15.76,9.71-24.29,12.88-14.18,5.27-29,6.5-44.28,5.31-18.69-1.46-35.52-7.26-50.42-18.52-1.19-.9-1.88-3-2-4.67-.28-4.09-.09-8.22-.09-12.21a8.21,8.21,0,0,0-2.11-.46,21,21,0,0,0-2.86.71,179.24,179.24,0,0,0-39.67,16.81c-28.61,16.78-50.37,40-65.65,69.29-7.58,14.51-12.31,30-15.43,46.18C18.33,492,20.24,511.39,19.48,531.38ZM146.28,281c-2.84-4.6-5.56-8.31-7.57-12.38-12.37-25.09-14.88-51.52-7.66-78.25,6.24-23.1,21-38.8,45.19-44.6,13.6-3.26,27.18-6.81,40.43-11.24,13.67-4.58,26.38-11.29,37-21.45,4.87-4.65,10.12-8.9,15.44-13.54,1.28,2.12,2.29,3.79,3.29,5.46,7,11.62,14.2,23.22,16.53,36.81a221.24,221.24,0,0,1,3.47,30.52c.5,16.07,1,32.26-.43,48.24-1.73,19.62-8.65,37.9-19.55,54.47-1.75,2.67-1.18,4.57,1.67,5.3,8.78,2.23,17.53,5,26.46,6.12,22.08,2.81,41.84-4,60-16.25,7.29-4.93,7.34-4.91,1.18-11-16.19-16-24.62-35.17-24.22-58.23.37-20.82.53-41.67-.1-62.48a231.79,231.79,0,0,0-4-34.43A79.7,79.7,0,0,0,319.69,71c-8.42-11.59-19.8-16.66-33.71-16.37-4.92.1-8.06-.95-10.8-5.54-5.29-8.87-13.74-14.61-22.62-19.57-15.15-8.46-31.41-11-48.68-10.35-18.22.66-35.83,3.37-52.72,10.32-28.24,11.63-47.73,31.78-58.84,60.19C85,108.45,82.63,128,82.51,148c-.11,18.33-.24,36.66,0,55,.37,25.26-9.6,46.5-24.83,65.79-3,3.8-3.07,4.92,1.61,6.72a224.11,224.11,0,0,0,22.44,7.68C103.08,288.87,124.29,288.19,146.28,281Zm128.65-89.4c-.43-9.62-.13-19.34-1.48-28.83-1.45-10.22-4.46-20.21-6.74-30.32-.86-3.81-3.08-3.41-5.49-1.77-2.59,1.76-4.87,4-7.51,5.67-21.92,13.9-45.89,22.57-71.33,27.09-16.52,2.93-27,12.25-32.32,27.86-5.41,15.86-4.67,32-2.09,48.19,2,12.47,6.74,23.77,15.85,32.93,7,7,16.34,9,25.15,12.2a20.34,20.34,0,0,1,6.73,3.77c9,8.29,19.72,8.22,28.83-.15a17.18,17.18,0,0,1,6.79-3.62c8-2.25,16.21-4.2,20.69-12.08,5.76-10.16,12.15-20.14,16.33-31C274.51,225.69,275.11,208.64,274.92,191.63ZM167.37,296.55c0,17-.11,32.12.17,47.25,0,1.56,2.1,3.73,3.75,4.5,25.77,12.08,51.65,12,77.59.38,2.76-1.24,4-2.92,3.93-6.09-.09-11.32.14-22.64.23-34,0-3.45,0-6.9,0-12.06-7.53,3.36-14.54,5.32-20.18,9.24-14.36,10-31.34,10-45.57-.08C181.79,301.84,174.89,299.92,167.37,296.55Z"/></g></g></svg>