<svg xmlns="http://www.w3.org/2000/svg" viewBox="0 0 469.75 512"><defs><style>.cls-1{fill:#93a6b6;}.cls-2{fill:#21425c;}.cls-3{fill:#4d6274;}.cls-4{fill:#b4cae0;}</style></defs><title>home-health</title><g id="Layer_2" data-name="Layer 2"><g id="Layer_1-2" data-name="Layer 1"><path class="cls-1" d="M209.34,512C150,512,101.75,463.84,101.75,404.64v-12a7.61,7.61,0,0,1,15.22,0v12c0,50.81,41.44,92.14,92.37,92.14s92.37-41.33,92.37-92.14V260.54A53.61,53.61,0,0,1,355.26,207h21.29a7.61,7.61,0,1,1,0,15.22H355.26a38.37,38.37,0,0,0-38.32,38.32V404.64C316.93,463.84,268.67,512,209.34,512Z"/><path class="cls-1" d="M201.4,153.43a7.61,7.61,0,0,1-7.61-7.61V50.32a29.25,29.25,0,0,0-29.24-29.2H153.18a7.61,7.61,0,1,1,0-15.22h11.37A44.49,44.49,0,0,1,209,50.32v95.49A7.61,7.61,0,0,1,201.4,153.43Z"/><path class="cls-1" d="M15.91,152a7.61,7.61,0,0,1-7.61-7.61V50.32A44.49,44.49,0,0,1,52.76,5.9H62.6a7.61,7.61,0,0,1,0,15.22H52.76a29.25,29.25,0,0,0-29.24,29.2v94.08A7.61,7.61,0,0,1,15.91,152Z"/><path class="cls-2" d="M201.4,129.79a15.9,15.9,0,0,0-15.91,15.89v63a76.87,76.87,0,0,1-77.59,76.74c-42.3-.41-76.07-35.47-76.07-77.72v-62a15.91,15.91,0,0,0-31.82,0v61.78a110.15,110.15,0,0,0,53.85,94.71v45.14a55.51,55.51,0,0,0,111,0V301.49a108.54,108.54,0,0,0,52.44-92.84v-63a15.9,15.9,0,0,0-15.91-15.89ZM133.05,347.31a23.69,23.69,0,0,1-47.38,0v-32.6a108.63,108.63,0,0,0,47.38-.29v32.89Z"/><path class="cls-2" d="M201.4,129.79a15.91,15.91,0,0,0-15.22,11.27,15.86,15.86,0,0,1,.69,4.62v63a108.34,108.34,0,0,1-41.43,85.2,28.59,28.59,0,0,0-11,22.42v31a55.54,55.54,0,0,1-40.29,53.31,55.48,55.48,0,0,0,70.74-53.31V301.49a108.54,108.54,0,0,0,52.44-92.84v-63a15.9,15.9,0,0,0-15.91-15.89Z"/><path class="cls-3" d="M81.39,26.78H66.87A13.39,13.39,0,0,1,66.87,0H81.39a13.39,13.39,0,0,1,0,26.78Z"/><path class="cls-3" d="M150.44,26.78H135.91a13.39,13.39,0,0,1,0-26.78h14.52a13.39,13.39,0,1,1,0,26.78Z"/><ellipse class="cls-3" cx="420.95" cy="214.56" rx="48.81" ry="48.75"/><path class="cls-4" d="M420.95,165.81a48.77,48.77,0,0,0-15.22,2.43,48.73,48.73,0,0,1,0,92.64,48.76,48.76,0,1,0,15.22-95.07Z"/><ellipse class="cls-2" cx="420.95" cy="214.56" rx="12.57" ry="12.56"/></g></g></svg>