<svg xmlns="http://www.w3.org/2000/svg" viewBox="0 0 512 206.2"><defs><style>.cls-1{fill:#93a6b6;}.cls-2{fill:#c3e4ff;}.cls-3{fill:#21425c;}.cls-4{fill:#cbd6e0;}.cls-5{fill:#5881a4;}</style></defs><title>home-car</title><g id="Layer_2" data-name="Layer 2"><g id="Layer_1-2" data-name="Layer 1"><path class="cls-1" d="M512,119.26v26.49s-8.45,14.89-14,17.21H396.65l-7.44-2.32-3.27,7.44H133.1l-.67-.24-11.41-4L35,175s-2.72-.13-6.63-.64C17.46,173-2.76,168.54,2,155.51c0,0-4.56-24.7,0-39,0,0,1.39-20,18.58-27S88.47,69,116.36,64.88c0,0,24.63-7.44,35.32-17.21a308,308,0,0,1,53.91-31.08,164.51,164.51,0,0,1,50.67-12.8C290,.62,363.39-4.26,410.09,7.23A162,162,0,0,1,489.91,54.4a44.33,44.33,0,0,1,11.75,30.17V94.62l3.25,11.62S512,111.35,512,119.26Z"/><path class="cls-2" d="M132.63,163.11c0,1.58-.06,3.17-.21,4.72l-11.41-4L35,175s-2.72-.13-6.63-.64a52.72,52.72,0,1,1,104.23-11.28Z"/><circle class="cls-3" cx="79.91" cy="163.11" r="43.09"/><path class="cls-2" d="M388.2,162.92l1-2.3,7.44,2.32h97a52.71,52.71,0,0,0-105.43,0Z"/><circle class="cls-3" cx="440.9" cy="163.11" r="43.09"/><path class="cls-3" d="M287.6,13.81c-8.95.3-14.61.61-14.73.62l-.32,0h-.32c-.9,0-1.79,0-2.69,0-39.07,0-78,23.21-97.73,37a57.13,57.13,0,0,0-20,25l124.51-9.94Z"/><path class="cls-3" d="M403.91,21.6c-12.37-5.41-41.84-8.39-83.1-8.39-4.83,0-9.52,0-13.94.11l-4.48,51h0l123.39-9.84c.4-2.3.74-4.5,1-6.5l0-.16,0-.16C428.1,40.16,414,27.78,403.91,21.6Z"/><path class="cls-3" d="M11,108.66s17.14-20,36.35-18.45c4.67.37,18.65,6.63-3.2,18.45-6.83,3.7-20.28,5.87-30.51,6C5.37,114.81,11,108.66,11,108.66Z"/><path class="cls-3" d="M501.68,94.62V84.57a44.69,44.69,0,0,0-2-12.63c-6.91-.86-15.57-1.3-18.39,1.52-3.75,3.75-3.75,17.45,0,21.19,3.14,3.14,13.6,2.26,20.73,1.22Z"/><circle class="cls-4" cx="79.91" cy="163.11" r="28.76"/><circle class="cls-3" cx="79.91" cy="163.11" r="23.46"/><circle class="cls-4" cx="79.91" cy="163.11" r="16.89"/><circle class="cls-4" cx="440.9" cy="163.11" r="28.76"/><circle class="cls-3" cx="440.9" cy="163.11" r="23.46"/><circle class="cls-4" cx="440.9" cy="163.11" r="16.89"/><path class="cls-5" d="M180.94,74.07l26.2-2.1,33-53.59a178.1,178.1,0,0,0-32.33,12.07Z"/><path class="cls-5" d="M216.38,71.24,230,70.15l34-55.36a117,117,0,0,0-14,1.58Z"/><path class="cls-5" d="M309.51,63.81l26.2-2.1,28.92-47c-7.3-.54-15.4-.94-24.2-1.17Z"/><path class="cls-5" d="M344.93,61l13.67-1.09,26.43-43c-3.68-.58-7.63-1.1-12.05-1.54Z"/></g></g></svg>