<svg xmlns="http://www.w3.org/2000/svg" viewBox="0 0 512 361.16"><defs><style>.cls-1{fill:#21425c;}.cls-2{fill:#c3e4ff;}.cls-3{fill:#93a6b6;}.cls-4{fill:#7a9cb8;}.cls-5{fill:#43647e;}.cls-6{fill:#e7e7e7;}</style></defs><title>home-motorbike</title><g id="Layer_2" data-name="Layer 2"><g id="Layer_1-2" data-name="Layer 1"><path class="cls-1" d="M216.77,143.7,120,107.64a42.75,42.75,0,0,1-25.14-55,3.28,3.28,0,0,1,4.22-1.93L189.7,84.49A46,46,0,0,1,216.77,143.7Z"/><ellipse class="cls-1" cx="87.05" cy="274.63" rx="87.05" ry="86.53"/><ellipse class="cls-2" cx="87.05" cy="274.63" rx="49.4" ry="49.1"/><ellipse class="cls-1" cx="424.95" cy="274.63" rx="87.05" ry="86.53"/><path class="cls-1" d="M87,188.1a88,88,0,0,0-15.45,1.39c40.7,7.25,71.6,42.6,71.6,85.14s-30.9,77.89-71.6,85.14A88,88,0,0,0,87,361.16c48.08,0,87-38.74,87-86.53s-39-86.53-87-86.53Z"/><path class="cls-1" d="M423.92,188.1A88,88,0,0,0,409,189.4c41,7,72.11,42.51,72.11,85.23S449.94,352.82,409,359.86a88,88,0,0,0,14.93,1.29c48.08,0,87-38.74,87-86.53s-39-86.53-87-86.53Z"/><ellipse class="cls-2" cx="424.95" cy="274.63" rx="49.4" ry="49.1"/><path class="cls-1" d="M415.81,282.93,344.69,71.37a26,26,0,0,0-9.66-13L306.53,38.34,321,18.11l38.28,24.67a26,26,0,0,1,10.55,13.55l73.11,217.48a14.3,14.3,0,0,1-27.11,9.11Z"/><circle class="cls-3" cx="306.49" cy="23.57" r="23.57" transform="translate(73.11 223.62) rotate(-45)"/><path class="cls-4" d="M92.83,271.09l73-128.17,40.61,28.93L135,295.76Z"/><path class="cls-5" d="M227.68,305.53,95,291.54A9.62,9.62,0,0,1,86.44,282v-6.81a9.62,9.62,0,0,1,7.28-9.33l123.61-31a35.72,35.72,0,0,1,10.35,70.69Z"/><path class="cls-2" d="M290.94,76.53q3.18-.11,6.38,0a103.72,103.72,0,0,1,38.51,8.55l23.3,10.12,19.8-19.5a23.82,23.82,0,0,1,30.78-2.24l35.39,25.92c9.24,6.77-6.61,17-6.46,27.4.15,9.88,16.71,19.84,8.37,26.9l-72.35,61.25a90.74,90.74,0,0,0-32.11,69.25,22.25,22.25,0,0,1-22.25,22.25H204.56a11.9,11.9,0,0,1-7.93-20.77l29-25.94a11.9,11.9,0,0,0,4-8.87V216.18a11.9,11.9,0,0,0-6.06-10.37L59.22,113.26a2.14,2.14,0,0,1-.34-3.5,73.38,73.38,0,0,1,77.3-11.25L187.11,121a23,23,0,0,0,27.07-6.47,103.75,103.75,0,0,1,76.77-38"/><path class="cls-1" d="M445.11,99.35,409.72,73.43a23.81,23.81,0,0,0-29.46,1.06l33.95,24.87a34.59,34.59,0,0,1,1.91,54.3l-72.35,61.25a90.74,90.74,0,0,0-32.11,69.25,22.25,22.25,0,0,1-22.25,22.25h30.91a22.25,22.25,0,0,0,22.25-22.25,90.74,90.74,0,0,1,32.11-69.25L447,153.65c8.36-7.08-8.2-17.08-8.37-27s16-19.74,7.55-26.48Q445.67,99.76,445.11,99.35Z"/><path class="cls-2" d="M446.19,100.19l-41.86,10.63c-20,5.07-18.37,33.95,2,36.78l41,5.71a34.57,34.57,0,0,0-1.21-53.12Z"/><path class="cls-6" d="M446.19,100.19l-24.78,6.29a34.62,34.62,0,0,1-1.2,43l27.19,3.78A34.57,34.57,0,0,0,446.19,100.19Z"/><path class="cls-1" d="M302.55,240.06a6.73,6.73,0,0,1-5.77-3.25l-16.51-27.33a119.93,119.93,0,0,0-64.45-51.64l-21.27-7.13a6.74,6.74,0,0,1,4.28-12.77l21.27,7.14a133.42,133.42,0,0,1,71.7,57.45l16.51,27.33a6.74,6.74,0,0,1-5.76,10.22Z"/><path class="cls-1" d="M236.49,295.62a6.55,6.55,0,0,1-4.63-11.18l22.53-22.53a6.55,6.55,0,0,1,9.26,9.26L241.13,293.7a6.53,6.53,0,0,1-4.63,1.92Z"/><path class="cls-1" d="M271.77,295.62a6.55,6.55,0,0,1-4.63-11.18l22.53-22.53a6.55,6.55,0,0,1,9.26,9.26L276.4,293.7A6.53,6.53,0,0,1,271.77,295.62Z"/></g></g></svg>