<svg xmlns="http://www.w3.org/2000/svg" viewBox="0 0 351.22 252.51"><defs><style>.cls-1,.cls-4{fill:#21425c;}.cls-2{fill:none;}.cls-2,.cls-4{stroke:#21425c;stroke-miterlimit:10;stroke-width:4px;}.cls-3{fill:#92a5b5;}</style></defs><title>home-travel</title><g id="Layer_2" data-name="Layer 2"><g id="Layer_1-2" data-name="Layer 1"><path class="cls-1" d="M106.24,3.9C51.12,17.77,10.82,67.73,10.64,127.06c0,5.55,0,18,8.75,17.57.88-2.63.12-5.14-.48-7.67-.67-2.87,2.72-4.29,2.58-7,2.95.11,2.53,3.11,3.9,4.58a2.18,2.18,0,0,1,.51.86c2.3,8.32,9.42,9.48,16.29,10.61,3.62.6,6.93-.38,7.34-5,.12-1.39,2.23-3,.64-4s-2.8.94-3.83,2.24c-2.31,2.91-6.62,3.16-8.24.19-2.21-4.06-1.66-8.42,0-12.57,1.44-3.5,4.41-3.54,7.58-3.07a3.4,3.4,0,0,0,2.39-.31c4.49-3.77,6.46-.62,8.21,2.93.93,1.88,1.68,3.8,4,4.27a3.28,3.28,0,0,0-.22-3.59c-2.66-4.19-1.5-7.35,2.32-10.19A17.52,17.52,0,0,0,66.63,112c4.09-6.62,8.6-12.56,17.12-13.56a12.59,12.59,0,0,0,2.31-.93c3.54-1.2,3.49-3,1-5.33-1-1-3.17-2.68-2.08-3.43,1.81-1.24,4.51-1.58,6.82-1.54,1.42,0,1,1.95.49,2.86-1.15,2,.05,2.84,1.45,3.44a4.37,4.37,0,0,0,5.08-.78c1.55-1.58.39-2.69-1-3.54-1.66-1-1.18-2.69-1.08-4.06.44-6.4-2.48-12.14-3.05-18.56-2.32.7-3.18,3.59-5.7,2.86-.09-.51-.31-.93-.19-1.13,2.62-4.32-.71-6.45-3.59-7.45-3.93-1.36-2.66,3-3.78,4.72-2.53,3.89-1.77,9.6-6.9,12.13-1.25.62-2.46,1.79-3.38.31-2.39-3.88-5.64-7.25-5.53-12.47.18-8.52,7.15-9.66,12.78-13a16.41,16.41,0,0,0,.21,2.29c.28,1.12-1.61,2-.35,3.13.89.78,1.92.19,2.84-.11,1.64-.53,1.83-1.53,1.09-3.08s-.24-2.66,1.65-2.7c2.45-.06,2.72-1.81,3.23-3.66A49.33,49.33,0,0,1,88.4,43c.5-1.21,1.25-2,2.64-1.75a3,3,0,0,1,2.45,2.21,6.17,6.17,0,0,1-.69,6.15,30.41,30.41,0,0,0-3.08,5.09c-1.26,2.73,1.13,4.21,2.4,6.07.61.89,1.2,1.63,2.4,1,3.59-1.81,1.67-7.85,6.68-8.69.72-.12,1-1.45.63-2.21-2.16-4.45,2.62-10.28-2.78-14.1-.21-.15,0-1,.06-1.43,1.63-8.75-7.35-3.73-9.83-7.41-.5-.75-3.18-2.13-4.84-.13-.64.77-1.18,1.61-1.81,2.39-3.5,4.3-5.36,9.86-10.34,13.07-1.87,1.21-3.49,1.5-4.8-.2-1.54-2,.3-2.6,1.74-3.63,5.15-3.71,8.88-8.42,9.88-15,.53-3.47,4-2.86,6.18-4.05,1.84-1,3.14-.29,3.8,1.74.28.86.43,2.3,1.74,2,1.56-.36,1.95-2.27,1.73-3.24-1.48-6.53,3.5-4.57,6.45-5,2.34-.31,3.16.85,1.6,2.93s-1.78,4.05.72,5.44,3.86-.31,5.22-2.22c1.63-2.29,3.53-4.4,5.38-6.53a1.76,1.76,0,0,1,2.23-.55c.83.55.48,1.5.1,2.25-.68,1.33-1.38,2.66-2.17,3.92-1.36,2.17-1.9,4.48.31,6.2,3.52,2.75,5.92,6.15,3.35,10.2-2.31,3.64,0,7.83-2.58,11.24-3.77,4.94-3.38,10.52-1.63,16.12a4,4,0,0,0,2.66,2.79c1.91.53,2.2-1.34,2.64-2.36,3.34-7.7,9.63-11.41,17.36-13.54,5.25-1.44,7.86-5.5,7.54-10.9a3.61,3.61,0,0,1,1.1-3.16c2.41-2.13,3.16-5,3.63-8,.87-5.48,2-10.83,6.29-14.85.91-.85,1.59-1.86.15-2.85-1-.71-3-1.11-2-2.73.86-1.31,2.82-.56,4.21-.33A125,125,0,0,1,198,24.29c3.89,2.26,5.86,4.89,5.58,9.47s.92,8,6.64,7.23c.71-.1,1.77-.27,2.1.8s-.56,1.35-1.22,1.86c-8.77,6.85-13.72,7.31-21.87.55-3.57-3-6.26-2-9.22-.21a12.55,12.55,0,0,0-6.16,8.1c-1.08,4.46-2.06,8.9-6.91,11.49-2.93,1.56-2,5.34-.09,7,2.37,2,6.06,2.25,7.84,5.48.31.57,2,0,2.45-1,1-2.6,3.4-4.5,2-8.21-1.53-4.12.1-8.18,4.33-12a14,14,0,0,1,0,3c-1.32,4-2.22,7.52,3.76,8.47,1.67.27,1.34,1.79-.17,2.85a7.69,7.69,0,0,0-3.37,5.87c-.2,2.72-1.92,3.61-4.36,3.81-5.32.44-10.65.83-14.51,5.35-.65.76-2.1,2-2.63,0-.83-3.12-3.83-5.06-4.19-8.4-.15-1.37-.49-3.49-2.52-2.68a2.61,2.61,0,0,0-.82,4.26c2.69,2.26,1.28,4.24.59,6.62-.43,1.47-2,4.12.34,4.64,5.71,1.3-.63,2.75.23,4.25,1,1.72,3,3.34,2,5.72-.24.54-1.4.93-2.14.94-4.31.06-5.24,2.91-6,7A500.15,500.15,0,0,0,195.44,82c1.65-1,1.78-2.61,2.22-4.22C201,65.15,216.51,57.88,228,64.25c4.57,2.54,7.71,2.31,11.4-.61A10.41,10.41,0,0,1,242,62.18c2.7-1.07,2.64-2.31,1.05-4.67-18.28-27.23-43.13-45.15-74.84-53.7C140.78-2.23,123.66-.23,106.24,3.9Z"/><path class="cls-1" d="M29.69,191.07c5.2-1.34,8.48.45,11.65,4.88a114.26,114.26,0,0,0,52.48,40.64c1.48.58,2.9,1.76,4.56.67-.89-5-4.29-8.81-6.12-13.38-2.81-7-5-14.28-7.17-21.48-1.91-6.28-4.41-11.72-12.25-14.77C85,184.46,95.44,181.76,105.9,179c3.68-1,7.33-2.11,10.95-3.31,2.58-.86,3.6,0,2.91,2.52-1.46,5.32-1.68,10.82-2.42,16.23-.21,1.56-.6,3-1.92,3.89-4.49,3.1-5,8.15-6.87,12.69-2.52,6-2.21,12.34-4.29,18.27-1.5,4.29,2.38,11.46,6.33,12.4,48.73,11.66,100.52-9.66,127-52.2a122.65,122.65,0,0,0,17.56-50.34c.16-1.29,3.08-22.91,2.74-26.79-.21-2.32.63-4.31,2.91-4.41,2.57-.12,2.5,2.69,2.67,4,1.63,63.86-26.69,110.15-78.16,131.08A126.31,126.31,0,0,1,32.25,196.3C31.17,194.7,29.63,193.28,29.69,191.07Z"/><path class="cls-1" d="M171.36,157.16c12.51-5.07,24.89-9.41,36.48-15.49,2.88-1.51,6.54,1.9,7-.22.78-3.73,3.48-4,5.67-5.43,4.11-2.68,8.21-3.13,12.48.26-3.65,3.87-8.58,5.4-13.22,7.44-1.28.56-3.44.78-2.86,2.74.68,2.28,2.72,1.13,4.22.8,1.83-.4,4-2.09,5.33,0,1,1.68-1,3.25-2,4.73-3.55,5.21-7.2,10.36-10.55,15.69-1.93,3.07-3.65,6.36-2.17,10.3a4.08,4.08,0,0,1-.53,3.85c-5.42,7-7.55,15.85-13.22,22.67a17.09,17.09,0,0,1-4.34,4.05c-7,4.13-8.5,3.59-11-4.05-1.37-4.25-2.58-8.58-4.22-12.72a12.18,12.18,0,0,1-.52-8.27A15.35,15.35,0,0,0,176.76,172c-1.69-3.55-4-6.93-2.51-11.26C174.91,158.77,172.76,158.45,171.36,157.16Z"/><path class="cls-2" d="M186.66,105.72l10.24-5.86c3.81-3.09,6.18-2.25,9.28,1.75,3.81,4.91,6.13,10.39,8.78,15.8,1,2,.54,3.31-1.65,4.26-3.61,1.56-7.1,3.4-10.64,5.12-16.5,7.09-33.05,14-50,20-21.11,7.45-42.3,14.64-64,20.11-22.91,5.85-45.84,11.47-69.7,5.69-7.88-3.33-14.05-8.33-16.75-16.84-.3-.93-.33-1.53.47-2.08,4.49,2.32,8,6.09,13.29,7.35,16.61,4,32.61,1.22,48.53-3.48,25.76-8.26,55.19-20.43,59.17-21.83L137,129.89C154.06,122.92,170.38,114.37,186.66,105.72Z"/><path class="cls-3" d="M186.66,105.72l10.24-5.86c3.81-3.09,6.18-2.25,9.28,1.75,3.81,4.91,6.13,10.39,8.78,15.8,1,2,.54,3.31-1.65,4.26-3.61,1.56-7.1,3.4-10.64,5.12-16.5,7.09-33.05,14-50,20-21.11,7.45-42.3,14.64-64,20.11-22.91,5.85-45.84,11.47-69.7,5.69-7.88-3.33-14.05-8.33-16.75-16.84-.3-.93-.33-1.53.47-2.08,4.49,2.32,8,6.09,13.29,7.35,16.61,4,32.61,1.22,48.53-3.48,25.76-8.26,55.19-20.43,59.17-21.83L137,129.89C154.06,122.92,170.38,114.37,186.66,105.72Z"/><path class="cls-4" d="M239.65,30.8c-2.73-3.18-5.62-6-10-10.32-1.23-1.23-4.09-2.74-2.29-4.82s4.56-4.17,7.9-2.1c4.09,2.54,8.15,5.12,12.26,7.63s8.52,5.13,12.78,7.7l17.3,10.91c2.92,1.85,5.88,3.64,8.76,5.56,8.24,5.51,9.37,5.49,17.24-.7l16-8.94,10.29-5.8c5-1.81,9.88-3.83,15.39-3.3,3.6.35,4.68,2.08,3.3,5.35-1.71,4.06-4.72,7.07-8.1,9.76-10.3,7.78-22.07,13.15-32.89,20.08-4.1,1.46-5.15,4.5-5,8.61,1,20,1.81,40.05,2.67,60.08a17.06,17.06,0,0,1-.13,4.45c-.62,2.73-2.93,4.13-5.33,4.64-3,.65-2.66-2.46-3.19-4.05-2.53-7.54-4.8-15.16-7.16-22.76-2.87-9.54-5.8-19.06-8.57-28.63-1.29-4.46-3.53-5.13-7.31-2.6-2.89,1.93-6,3.51-9,5.25-6.7,3.62-13.39,7.27-20.12,10.85a5,5,0,0,0-2.82,4.86c0,3.16-.16,6.34.06,9.49.36,5.14-2.24,7.27-7,7.51-3.81-13.57-10.1-25.75-20.08-35.87-.89-1.3-1.14-2.57.13-3.79,3-2.17,5.93-1.87,8.63.29,7,5.65,13.52,6.46,20.71-.35,3.71-3.52,8.95-5.41,13.5-8,2.83-1.65,5.7-3.23,8.46-5,3-1.88,3.46-4.48,1-7-4-4.14-8.19-8-12.3-12Z"/><path class="cls-3" d="M239.65,30.8c-3.29-3.51-6.36-6.45-10-10.32-1.14-1.32-4.09-2.74-2.29-4.82s4.56-4.17,7.9-2.1c4.09,2.54,8.15,5.12,12.26,7.63s8.52,5.13,12.78,7.7l17.3,10.91c2.92,1.85,5.88,3.64,8.76,5.56,8.24,5.51,9.37,5.49,17.24-.7l16-8.94,10.29-5.8c5-1.81,9.88-3.83,15.39-3.3,3.6.35,4.68,2.08,3.3,5.35-1.71,4.06-4.72,7.07-8.1,9.76-10.3,7.78-22.07,13.15-32.89,20.08-4.1,1.46-5.15,4.5-5,8.61,1,20,1.81,40.05,2.67,60.08a17.06,17.06,0,0,1-.13,4.45c-.62,2.73-2.93,4.13-5.33,4.64-3,.65-2.66-2.46-3.19-4.05-2.53-7.54-4.8-15.16-7.16-22.76-2.87-9.54-5.8-19.06-8.57-28.63-1.29-4.46-3.53-5.13-7.31-2.6-2.89,1.93-6,3.51-9,5.25-6.7,3.62-13.39,7.27-20.12,10.85a5,5,0,0,0-2.82,4.86c0,3.16-.16,6.34.06,9.49.36,5.14-2.24,7.27-7,7.51-3.81-13.57-10.1-25.75-20.08-35.87-.89-1.3-1.14-2.57.13-3.79,3-2.17,5.93-1.87,8.63.29,7,5.65,13.52,6.46,20.71-.35,3.71-3.52,8.95-5.41,13.5-8,2.83-1.65,5.7-3.23,8.46-5,3-1.88,3.46-4.48,1-7-4-4.14-8.19-8-12.3-12Z"/></g></g></svg>