<?xml version="1.0" encoding="utf-8"?>
<!-- Generator: Adobe Illustrator 21.0.0, SVG Export Plug-In . SVG Version: 6.00 Build 0)  -->
<svg version="1.1" id="Layer_1" xmlns="http://www.w3.org/2000/svg" xmlns:xlink="http://www.w3.org/1999/xlink" x="0px" y="0px"
	 viewBox="0 0 512 468" style="enable-background:new 0 0 512 468;" xml:space="preserve">
<style type="text/css">
	.st0{fill:#253890;}
</style>
<path class="st0" d="M2.1,2.1c170.3,0,339.5,0,509.6,0c-1.3,1.6-2,2.7-3,3.7c-61.2,64.6-122.5,129.1-183.6,193.7c-1.9,2-3,5.5-3,8.3
	c-0.2,62.5-0.2,125,0,187.5c0,4.3-1.4,6.5-5.1,8.4c-39.8,20.4-79.6,41-119.3,61.6c-1.6,0.8-3.2,1.5-5.6,2.7c0-2.8,0-4.9,0-7
	c0-84.1,0-168.3,0.1-252.4c0-4.1-1.1-7.1-4-10.1C126.9,134,65.8,69.6,4.7,5.1C4,4.4,3.4,3.7,2.1,2.1z M210.9,436.7
	c2.7-1.3,4.3-2.1,5.9-2.9c26.9-13.9,53.8-27.9,80.8-41.6c4.1-2.1,5.6-4.5,5.6-9.1c-0.2-61-0.1-122-0.2-183c0-3.7,1-6.4,3.6-9.2
	C358.8,136,410.9,81.1,462.9,26.2c1.4-1.5,2.7-3,4.3-4.9c-140.6,0-280.2,0-420.7,0c1.9,2.1,3.2,3.6,4.6,5.1
	c52,54.8,103.9,109.5,155.9,164.2c2.7,2.9,3.9,5.6,3.9,9.6c-0.1,76.3-0.1,152.6-0.1,229C210.9,431.3,210.9,433.4,210.9,436.7z"/>
</svg>
