<?xml version="1.0" encoding="utf-8"?>
<!-- Generator: Adobe Illustrator 24.2.3, SVG Export Plug-In . SVG Version: 6.00 Build 0)  -->
<svg version="1.1" id="Layer_1" xmlns="http://www.w3.org/2000/svg" xmlns:xlink="http://www.w3.org/1999/xlink" x="0px" y="0px"
	 viewBox="0 0 397.8 397.7" style="enable-background:new 0 0 397.8 397.7;" xml:space="preserve">
<style type="text/css">
	.st0{fill:#2A3B8F;}
</style>
<g id="Layer_2_1_">
	<g id="Layer_1-2">
		<g>
			<path class="st0" d="M317.8,391c-6.8-1.2-13.6-2.1-20.3-3.6c-29.8-6.8-56-21.4-80.9-38.5c-50.7-34.9-94.3-77.6-134.3-124.1
				c-24-27.9-45.4-57.6-60.7-91.3c-7.3-16-12.7-32.6-14-50.3C7.5,82,7.2,81,6.8,79.9v-6.8C10.4,61.8,17.9,52.9,26.3,45
				C37.8,34.3,49.9,24.2,62,14c5.6-4.8,12.7-7.3,20-7.2c7.9,0.1,14.4,3.1,18.9,9.8c16.9,25.5,33.8,51,50.6,76.5
				c5.2,7.9,5.1,16.4,1.2,24.4c-5.9,12.1-12.5,23.9-19.3,35.6c-2.4,4.2-2.1,6.9,0.7,10.6c15.9,21,33.9,40.1,52.9,58.1
				c15.5,14.7,32.1,28.3,48.1,42.5c2.9,2.5,5.3,2.4,8.6,0.5c9.4-5.6,18.9-11,28.6-16.1c4.6-2.3,9.4-4.1,14.3-5.5
				c6.6-2,12.8-0.4,18.4,3.3c25.3,16.7,50.5,33.4,75.6,50.1c9.4,6.3,12.6,16.2,9,27.6c-1.1,3.6-2.7,7.4-5.1,10.3
				c-11.8,13.8-23.6,27.6-36,40.9c-6.5,7.2-14.7,12.6-23.9,15.7H317.8z M320.5,373.8c2.2-1.2,6.9-2.7,10.3-5.7
				c8.3-7.3,16.2-15.1,23.7-23.3c5.8-6.4,11.3-13.2,16.4-20.3c5.1-6.9,3.9-11.8-3.2-16.4c-22.1-14.7-44.4-29-66.2-44.2
				c-7.4-5.2-13.8-4.7-20.9-0.7c-9.8,5.5-19.7,11-29.4,16.5c-13.1,7.5-13.1,7.6-25.3-1.5c-23.9-17.9-45.5-38.4-66.1-59.9
				c-16.5-17.2-32.5-34.8-46-54.6c-2.3-3.4-2.6-6-0.3-9.5c3.2-5,6-10.3,8.9-15.5c4.3-7.7,8.8-15.4,12.9-23.2
				c3.3-6.2,3.6-11.9-0.9-18.4C119,75,104.4,52.3,89.4,29.8c-4.4-6.6-9-7.7-15.8-3.4c-4,2.5-7.7,5.3-11.1,8.5
				c-11.1,10.5-22.2,21-32.8,31.9c-4,4-6.6,9.1-5.4,15.3s1.8,12.4,3.4,18.4c6.8,25.8,19.8,48.8,34.8,70.6
				c30.1,44.1,66.9,82.4,106.3,118.2c28,25.5,57.8,48.8,91.7,66.2C278.5,364.8,297.3,372.1,320.5,373.8z"/>
			<path class="st0" d="M325.7,397.7h-8.5l-0.6-0.1c-2.1-0.4-4.3-0.7-6.4-1.1c-4.6-0.7-9.4-1.5-14.2-2.6
				c-26.6-6-52.3-18.2-83.2-39.5c-46-31.7-90.3-72.7-135.6-125.3c-28.3-32.9-47.9-62.4-61.7-92.9C7.1,117.7,2.3,100.6,0.9,84
				c-0.1-0.6-0.3-1.1-0.5-1.7L0,81.2v-9.1l0.3-1c4.6-14.2,14.4-24.5,21.4-31c11.1-10.4,22.8-20.2,34.2-29.8l1.7-1.4
				C64.4,3,73.1-0.2,82.1,0c10.4,0.1,18.9,4.6,24.4,12.9c16.9,25.4,33.9,51.1,50.6,76.5c6.2,9.4,6.8,20.5,1.6,31.1
				c-5.2,10.7-11.3,21.9-19.5,36c-0.6,1.1-0.7,1.5-0.7,1.6l0,0c0,0,0.1,0.5,1,1.5c14.2,18.8,31.3,37.6,52.2,57.3
				c10.2,9.6,21.1,19,31.6,28.1c5.4,4.6,10.9,9.4,16.3,14.2c0,0,0,0,0.1,0.1c0.1-0.1,0.3-0.2,0.6-0.3c10.4-6.2,19.9-11.6,28.9-16.3
				l0.1-0.1c4.9-2.5,10.1-4.4,15.4-5.9c8-2.4,16.3-1,24,4.1c25.2,16.6,50.6,33.5,75.6,50.1c12,8,16.2,20.8,11.7,35.3
				c-1.1,3.5-3,8.6-6.4,12.6c-11.3,13.3-23.4,27.4-36.2,41.1c-7.2,8-16.5,14-26.7,17.5L325.7,397.7z M318.4,384.2h5
				c7.6-2.8,14.6-7.4,20-13.4l0.1-0.1c12.6-13.5,24.6-27.5,35.8-40.6c1.8-2.2,3-5.6,3.8-7.9c2.7-8.6,0.6-15.3-6.3-19.9
				c-25-16.6-50.4-33.5-75.6-50.1c-4.4-2.9-8.5-3.7-12.7-2.4l-0.1,0c-4.5,1.3-8.9,3-13.1,5c-8.8,4.6-18,9.8-28.2,15.9
				c-5.9,3.6-11.5,3.1-16.5-1.2c-5.4-4.8-10.9-9.5-16.2-14.1c-10.6-9.2-21.6-18.7-32.1-28.5c-21.5-20.3-39-39.6-53.7-59
				c-4.5-5.9-4.9-11.7-1.2-18.1c8.1-13.9,13.9-24.7,19-35.2c3.1-6.3,2.8-12.3-0.7-17.7c-16.7-25.3-33.8-51-50.6-76.5
				c-3-4.6-7.3-6.7-13.3-6.8c-5.7-0.1-11.2,1.9-15.5,5.6l-1.8,1.5C53.4,30.1,41.8,39.8,30.9,50c-9.1,8.5-14.5,16-17.4,24.3v4.5
				c0.3,1,0.6,2.1,0.8,3.2l0.1,0.6c1.2,15,5.6,30.8,13.4,48.1c13.3,29.3,32.2,57.8,59.6,89.7c44.5,51.7,88,92,133,123
				c29.4,20.3,53.6,31.8,78.6,37.4c4.3,1,8.7,1.7,13.3,2.4C314.4,383.5,316.4,383.9,318.4,384.2z M321.9,380.7l-1.9-0.1
				c-26.4-1.9-46.5-10.7-62.7-19.1c-30.2-15.6-59.8-36.9-93.1-67.2c-46.2-42-80.3-79.9-107.3-119.4c-18.6-27.1-29.6-49.6-35.7-72.7
				c-1.1-4.2-1.8-8.4-2.4-12.5c-0.3-2.1-0.7-4.3-1.1-6.4c-1.5-7.7,1-15.1,7.3-21.3c10.8-11.1,22.2-21.9,33-32.1
				c3.8-3.5,7.9-6.6,12.2-9.3c9.8-6.3,18.5-4.5,25,5.4c4.8,7.2,9.5,14.4,14.3,21.6c9.9,15.1,20.2,30.7,30.6,45.8
				c5.6,8.1,6,16.4,1.3,25.4c-3.1,5.9-6.4,11.8-9.6,17.4c-1.1,2-2.2,3.9-3.3,5.9c-0.7,1.3-1.4,2.5-2.1,3.8c-2.2,4-4.5,8.1-7,12.1
				c-0.3,0.4-0.4,0.7-0.4,0.8c0.1,0.2,0.2,0.6,0.7,1.2c13.6,20.1,29.8,37.7,45.2,53.7c24.2,25.1,44.9,43.9,65.3,59.2
				c3.7,2.7,7.4,5.6,8.6,5.7c1.2,0.1,4.9-2.1,9-4.4l0.3-0.2c6.2-3.5,12.4-7,18.5-10.4c3.7-2,7.3-4.1,11-6.1
				c9.9-5.6,19.1-5.2,28.1,1.1c15.5,10.8,31.6,21.4,47.1,31.6c6.3,4.2,12.6,8.3,19,12.5c5.3,3.5,8.3,7.4,9.1,12
				c0.8,4.5-0.6,9.1-4.2,14.1c-5.1,7.2-10.8,14.2-16.8,20.8c-7.8,8.4-15.9,16.4-24.3,23.8c-3.3,2.9-7.2,4.6-9.9,5.8
				c-0.7,0.3-1.4,0.6-1.8,0.8L321.9,380.7z M80.6,30.5c-0.8,0-1.8,0.5-3.4,1.6c-3.7,2.3-7.1,4.9-10.2,7.8
				c-10.6,10-21.9,20.7-32.6,31.6c-4.1,4.1-4,7.3-3.6,9.3c0.4,2.3,0.8,4.6,1.2,6.8c0.6,3.9,1.2,7.6,2.2,11.2
				c5.7,21.6,16.1,42.7,33.8,68.5c26.4,38.6,59.8,75.7,105.2,117c32.4,29.5,61.1,50.2,90.2,65.2c14.6,7.5,32.6,15.5,55.7,17.5
				c0.3-0.1,0.5-0.2,0.8-0.4c2.1-0.9,4.6-2,6.3-3.5c8-7.1,15.8-14.8,23.3-22.8c5.6-6.2,11-12.8,15.8-19.6c1.6-2.2,1.9-3.4,1.8-3.7
				c-0.1-0.4-0.8-1.5-3.2-3.1c-6.3-4.2-12.6-8.3-18.9-12.5c-15.6-10.3-31.8-20.9-47.4-31.8c-4.8-3.4-8.3-3.5-13.7-0.4
				c-3.7,2.1-7.3,4.1-11,6.2c-6,3.4-12.3,6.9-18.4,10.4l-0.3,0.2c-7.1,4.1-11.4,6.5-16.6,6.2c-5.2-0.3-9.2-3.3-15.9-8.3
				c-21-15.7-42.3-35-67-60.6c-15.9-16.5-32.5-34.6-46.7-55.5c-3.9-5.8-4.1-11.3-0.4-17c2.3-3.6,4.4-7.3,6.6-11.3
				c0.7-1.3,1.4-2.6,2.1-3.8c1.1-2,2.2-4,3.3-5.9c3.2-5.6,6.4-11.4,9.5-17.1c2.4-4.5,2.2-7.4-0.5-11.4C118.3,85.9,108,70.2,98,55.1
				c-4.7-7.2-9.5-14.4-14.2-21.6C82.4,31.5,81.7,30.5,80.6,30.5z"/>
		</g>
	</g>
</g>
</svg>
