<svg xmlns="http://www.w3.org/2000/svg" viewBox="0 0 20 16.9"><title>travel-filter-icon</title><g id="Layer_2" data-name="Layer 2"><g id="Layer_1-2" data-name="Layer 1"><path d="M6.8,3.07A2.27,2.27,0,0,1,4.64,4.6,2.27,2.27,0,0,1,2.43,3.07H.84a.77.77,0,1,1,0-1.54H2.43l.1-.21A2.22,2.22,0,0,1,4.62,0,2.2,2.2,0,0,1,6.7,1.33a.3.3,0,0,0,.32.2h12a1.61,1.61,0,0,1,.33,0,.77.77,0,0,1-.13,1.52H6.8Zm-2.18,0a.77.77,0,1,0-.78-.75A.77.77,0,0,0,4.63,3.07Zm8.57,4.62a2.33,2.33,0,0,1,4.38,0h1.58a.77.77,0,1,1,0,1.54H17.57l-.1.21a2.22,2.22,0,0,1-2.12,1.32,2.2,2.2,0,0,1-2.06-1.33.3.3,0,0,0-.32-.2H.94a1.69,1.69,0,0,1-.31,0A.77.77,0,0,1,.73,7.69H13.19Zm2.2,1.54a.77.77,0,1,0-.78-.75A.77.77,0,0,0,15.39,9.22ZM5.51,13.84a2.31,2.31,0,0,1,1.79-1.5,2.28,2.28,0,0,1,2.49,1.3.29.29,0,0,0,.32.2h9.06a.77.77,0,1,1,0,1.54H9.88A2.27,2.27,0,0,1,7.73,16.9,2.28,2.28,0,0,1,5.5,15.38H.87a.77.77,0,1,1,0-1.54Zm3,.77a.77.77,0,1,0-.76.77A.77.77,0,0,0,8.46,14.6Z"/></g></g></svg>